<svg width="612" height="654" viewBox="0 0 612 654" fill="none" xmlns="http://www.w3.org/2000/svg">
<g id="moroccoHigh 1">
<g id="morocco">
<g className="marrakech-safi">
<mask id="path-1-inside-1" fill="white">
<path d="M346.36 142.34L347.19 142.37L347.8 144.1L349.45 146.46L349.64 147.59L353.14 148.67L354.2 149.59L355.47 149.75L356.05 150.14L356.59 150.8L357.98 154.02L359.04 154.43L359.56 155.27L360.58 157.83L361.66 159.61H362.03L362.34 159.14L363.15 159.69L364.41 159.58L366.15 158.49L366.11 157.67L366.48 157.42L366.98 157.81L368.1 157.19L371.02 157.04L372.73 159.44L375.15 159.72L376.45 160.87L377.58 161.26L378.28 162.29L379.74 162.45L380.29 163.24L380.35 165.73L379.97 167.14L380.74 170.66L380.34 172.26L380.78 176.11L381.88 177.95L383.17 178.5L383.61 180.24L382.74 181.2L382.63 181.87L383.08 182.4L382.93 183.18L384.85 185.53L384.54 185.98L383.7 186.08L383.51 186.79L383.89 188.38L383.25 188.97L381.45 188.68L378.98 189.25L377.46 188.42L376.45 188.36L375.59 188.52L374.46 189.2L373.84 190.06L373.83 192.89L374.18 193.58L375.74 194.51L375.49 196.08L376.17 196.49L376.58 196.18L378.53 195.81L379.27 195.95L379.49 196.8L379.36 198.23L378.14 201.69L377.99 202.95L378.07 204.29L378.5 205.53L376.25 206.2L375.27 206.85L373.28 209.6L370.76 210.16L367.26 210.35L365.4 211.25L362.31 214.49L361.29 215.12L359.84 215.51L357.61 215.54L355.46 216.59L352.33 219.53L349.63 220.99L349.47 221.28L349.82 221.85L349.54 223.03L346.36 225.83L343.79 227.33L343.28 227.19L343.42 225.77L342.21 224.77L339.03 226.27L337.69 226.64L333.75 227.31L331.93 226.84L331.11 227.05L329.85 228.36L323.68 228.21L322.56 228.46L321.24 229.71L319.9 229.87L318.91 226.29L318.19 225.55L316.68 225.16L316.28 224.19L315.62 224.04L314.82 224.11L313.33 225.87L312.26 226.61L308.14 228.44L307.24 229.95L306.29 230.41L302.82 229.88L300.84 230.75L298.95 230.79L297.76 231.51L295.68 231.29L294.79 230.49L292.29 230.76L291.61 231.23L290.58 231.38L289.27 230.67L288 230.38L287.83 230.12L288.1 229.09L287.71 228.81L286.32 230.8L285.23 231.3L283.3 230.49L282.41 230.79L280.34 230.72L280.5 230.45L279.64 228.21L276.79 225.33L276.54 224.78L276.65 224.17L277.26 222.87L276.9 222.02L276.87 220.77L276.62 220.59L276.94 219.11L275.97 218.53L276.29 217.74L276.09 217.08L276.46 216.2L276.34 215.88L277.01 214.69L276.72 214.36L276.79 212.68L277.68 210.73L277.82 208.97L277.68 207.54L277.26 206.51L276.94 206.17L276.01 206.02L276.3 204.88L277.58 203.56L278.57 201.63L278.78 201.74L278.91 200.75L278.32 200.66L279.91 199.33L281.86 196.53L282.35 195L282.19 192.17L283.85 190.84L285.7 187.99L286.78 187.04L288.2 184.98L291.44 181.33L295.09 182.65L297.16 182.84L299.82 182.4L304.78 182.87L306.75 183.56L307.38 184.72L307.93 187.19L310 188.37L310.29 189.08L312.57 189.61L312.54 190.45L313.04 190.83L314.06 190.43L315.39 191.6L315.82 191.68L316.35 190.86L316.71 191.47L317 191.39L317.77 190.38L318.28 190.27L319.21 190.75L319.82 190.42L323.01 189.94L324.13 190.6L324.86 191.8L326.84 192.46L329.59 191.29L330.85 192.2L331.36 192.3L332.47 191.88L331.24 190.19L330.62 190.05L329.92 187.71L331.68 185.55L331.84 184.87L332.76 183.7L333 182.19L334.41 179.66L336.07 178.19L337.49 177.34L337.64 175.37L338.28 175.47L338.76 176.15L338.81 175.35L338.66 174.7L337.12 173.4L334.82 172.13L333.51 171.89L331.99 170.55L330.38 168.33L329.2 165.42L329.07 164.5L329.36 163.03L332.29 162.09L333.09 160.79L334.21 160.31L335.87 160.32L336.1 159.97L336.07 158.43L336.69 157.91L339.06 157.87L339.58 157.25L340.72 156.73L341.28 155.9L342.25 155.2L343.59 153.28L344.03 153.48L344.26 153.27L344.52 151.99L344.31 150.88L343.24 149.24L343.49 148.5L343.24 148.03L344.63 146.95V146.23L344.96 145.82L344.5 144.73L344.72 143.6L345.63 142.57L346.36 142.34Z"/>
</mask>
<path d="M346.36 142.34L347.19 142.37L347.8 144.1L349.45 146.46L349.64 147.59L353.14 148.67L354.2 149.59L355.47 149.75L356.05 150.14L356.59 150.8L357.98 154.02L359.04 154.43L359.56 155.27L360.58 157.83L361.66 159.61H362.03L362.34 159.14L363.15 159.69L364.41 159.58L366.15 158.49L366.11 157.67L366.48 157.42L366.98 157.81L368.1 157.19L371.02 157.04L372.73 159.44L375.15 159.72L376.45 160.87L377.58 161.26L378.28 162.29L379.74 162.45L380.29 163.24L380.35 165.73L379.97 167.14L380.74 170.66L380.34 172.26L380.78 176.11L381.88 177.95L383.17 178.5L383.61 180.24L382.74 181.2L382.63 181.87L383.08 182.4L382.93 183.18L384.85 185.53L384.54 185.98L383.7 186.08L383.51 186.79L383.89 188.38L383.25 188.97L381.45 188.68L378.98 189.25L377.46 188.42L376.45 188.36L375.59 188.52L374.46 189.2L373.84 190.06L373.83 192.89L374.18 193.58L375.74 194.51L375.49 196.08L376.17 196.49L376.58 196.18L378.53 195.81L379.27 195.95L379.49 196.8L379.36 198.23L378.14 201.69L377.99 202.95L378.07 204.29L378.5 205.53L376.25 206.2L375.27 206.85L373.28 209.6L370.76 210.16L367.26 210.35L365.4 211.25L362.31 214.49L361.29 215.12L359.84 215.51L357.61 215.54L355.46 216.59L352.33 219.53L349.63 220.99L349.47 221.28L349.82 221.85L349.54 223.03L346.36 225.83L343.79 227.33L343.28 227.19L343.42 225.77L342.21 224.77L339.03 226.27L337.69 226.64L333.75 227.31L331.93 226.84L331.11 227.05L329.85 228.36L323.68 228.21L322.56 228.46L321.24 229.71L319.9 229.87L318.91 226.29L318.19 225.55L316.68 225.16L316.28 224.19L315.62 224.04L314.82 224.11L313.33 225.87L312.26 226.61L308.14 228.44L307.24 229.95L306.29 230.41L302.82 229.88L300.84 230.75L298.95 230.79L297.76 231.51L295.68 231.29L294.79 230.49L292.29 230.76L291.61 231.23L290.58 231.38L289.27 230.67L288 230.38L287.83 230.12L288.1 229.09L287.71 228.81L286.32 230.8L285.23 231.3L283.3 230.49L282.41 230.79L280.34 230.72L280.5 230.45L279.64 228.21L276.79 225.33L276.54 224.78L276.65 224.17L277.26 222.87L276.9 222.02L276.87 220.77L276.62 220.59L276.94 219.11L275.97 218.53L276.29 217.74L276.09 217.08L276.46 216.2L276.34 215.88L277.01 214.69L276.72 214.36L276.79 212.68L277.68 210.73L277.82 208.97L277.68 207.54L277.26 206.51L276.94 206.17L276.01 206.02L276.3 204.88L277.58 203.56L278.57 201.63L278.78 201.74L278.91 200.75L278.32 200.66L279.91 199.33L281.86 196.53L282.35 195L282.19 192.17L283.85 190.84L285.7 187.99L286.78 187.04L288.2 184.98L291.44 181.33L295.09 182.65L297.16 182.84L299.82 182.4L304.78 182.87L306.75 183.56L307.38 184.72L307.93 187.19L310 188.37L310.29 189.08L312.57 189.61L312.54 190.45L313.04 190.83L314.06 190.43L315.39 191.6L315.82 191.68L316.35 190.86L316.71 191.47L317 191.39L317.77 190.38L318.28 190.27L319.21 190.75L319.82 190.42L323.01 189.94L324.13 190.6L324.86 191.8L326.84 192.46L329.59 191.29L330.85 192.2L331.36 192.3L332.47 191.88L331.24 190.19L330.62 190.05L329.92 187.71L331.68 185.55L331.84 184.87L332.76 183.7L333 182.19L334.41 179.66L336.07 178.19L337.49 177.34L337.64 175.37L338.28 175.47L338.76 176.15L338.81 175.35L338.66 174.7L337.12 173.4L334.82 172.13L333.51 171.89L331.99 170.55L330.38 168.33L329.2 165.42L329.07 164.5L329.36 163.03L332.29 162.09L333.09 160.79L334.21 160.31L335.87 160.32L336.1 159.97L336.07 158.43L336.69 157.91L339.06 157.87L339.58 157.25L340.72 156.73L341.28 155.9L342.25 155.2L343.59 153.28L344.03 153.48L344.26 153.27L344.52 151.99L344.31 150.88L343.24 149.24L343.49 148.5L343.24 148.03L344.63 146.95V146.23L344.96 145.82L344.5 144.73L344.72 143.6L345.63 142.57L346.36 142.34Z" fill="#2C4E94" stroke="black" stroke-width="1.4" mask="url(#path-1-inside-1)"/>
</g>
<g id="others">
<g id="MA-01">
<mask id="path-2-inside-2" fill="white">
<path d="M444.7 0L444.85 0.459991L445.3 0.449997L445.58 1.75999L446.96 2.17999L446.49 4.34999L447.22 9.75L447.79 11.1L449.53 10.98L449.13 12.05L449.69 14.86L450.86 17.38L451.38 17.28L451.7 17.82L452.33 17.69L453.35 18.15L454.12 19.42L455.91 20.7L456.86 22.61L456.93 22.85L457.56 23.96L458.77 24.31L459.29 24.12L462.66 28.06L463.82 28.68L464.96 28.83L466.28 30.37L467.72 31.21L468.18 31.79L471.99 33.33L473.25 32.88L473.95 33.77L474.6 34.04L475.55 33.92L478.14 34.7L479.28 34.64L480.73 35.33L479.64 36.59L479.47 37.94L480.13 38.63L480.31 40.99L479.38 43.4L476.84 45.06L473 45.74L468.98 49.25L468.15 49.29L467.52 49.8L466.77 51.1L465.96 51.22L464.47 51.99L463.32 51.94L460.51 52.68L459.5 52.36L458.87 52.78H457.98L455.5 53.95L454.37 55.25L451.78 54.57L448.53 55.96L444.39 55.09L442.53 54.02L441.02 51.61L439.91 51.02L439.38 50.23L439.11 50.14L437.88 51.02L436.61 50.76L434.99 50.83L434.34 50.4L432.98 48.37L431.53 47.69L430.8 46.87L429.1 46.62L428.25 45.63L426.17 45.46L423.87 44.56L418.61 43.61L416.08 43.76L412.45 43.41L415.5 33.85L416.02 33.64L416.43 32.95L418.86 24.49L419.61 23.23L420 21.73L420.87 20.92L421.76 18.4L421.95 16.64L422.18 16.2L423.14 11.48L424.41 6.90999L424.64 6.84999L424.62 6.22L425.48 5.59999L427.13 5.83L427.8 5.62L429.4 6.23L429.41 6.56999L430.33 6.75999L431.44 5.70999L431.47 4.8L432.49 4.55L432.63 4.2L433.09 4.3L433.84 3.83L435.15 4.44L436 4.00999L437.1 4.26999L437.77 4.06L438.59 3.39L438.67 3.62L438.98 3.53999L440.7 1.61L441.21 1.55L441.61 0.580002L441.85 0.789993L442.27 0.309998H442.62L443.14 0.819992L443.3 0.529999L444.22 0.5L444.7 0Z"/>
</mask>
<path d="M444.7 0L444.85 0.459991L445.3 0.449997L445.58 1.75999L446.96 2.17999L446.49 4.34999L447.22 9.75L447.79 11.1L449.53 10.98L449.13 12.05L449.69 14.86L450.86 17.38L451.38 17.28L451.7 17.82L452.33 17.69L453.35 18.15L454.12 19.42L455.91 20.7L456.86 22.61L456.93 22.85L457.56 23.96L458.77 24.31L459.29 24.12L462.66 28.06L463.82 28.68L464.96 28.83L466.28 30.37L467.72 31.21L468.18 31.79L471.99 33.33L473.25 32.88L473.95 33.77L474.6 34.04L475.55 33.92L478.14 34.7L479.28 34.64L480.73 35.33L479.64 36.59L479.47 37.94L480.13 38.63L480.31 40.99L479.38 43.4L476.84 45.06L473 45.74L468.98 49.25L468.15 49.29L467.52 49.8L466.77 51.1L465.96 51.22L464.47 51.99L463.32 51.94L460.51 52.68L459.5 52.36L458.87 52.78H457.98L455.5 53.95L454.37 55.25L451.78 54.57L448.53 55.96L444.39 55.09L442.53 54.02L441.02 51.61L439.91 51.02L439.38 50.23L439.11 50.14L437.88 51.02L436.61 50.76L434.99 50.83L434.34 50.4L432.98 48.37L431.53 47.69L430.8 46.87L429.1 46.62L428.25 45.63L426.17 45.46L423.87 44.56L418.61 43.61L416.08 43.76L412.45 43.41L415.5 33.85L416.02 33.64L416.43 32.95L418.86 24.49L419.61 23.23L420 21.73L420.87 20.92L421.76 18.4L421.95 16.64L422.18 16.2L423.14 11.48L424.41 6.90999L424.64 6.84999L424.62 6.22L425.48 5.59999L427.13 5.83L427.8 5.62L429.4 6.23L429.41 6.56999L430.33 6.75999L431.44 5.70999L431.47 4.8L432.49 4.55L432.63 4.2L433.09 4.3L433.84 3.83L435.15 4.44L436 4.00999L437.1 4.26999L437.77 4.06L438.59 3.39L438.67 3.62L438.98 3.53999L440.7 1.61L441.21 1.55L441.61 0.580002L441.85 0.789993L442.27 0.309998H442.62L443.14 0.819992L443.3 0.529999L444.22 0.5L444.7 0Z" fill="white" fill-opacity="0.3" stroke="black" stroke-width="1.4" mask="url(#path-2-inside-2)"/>
</g>
<g id="MA-02">
<mask id="path-3-inside-3" fill="white">
<path d="M412.43 43.37L416.06 43.72L418.59 43.57L423.85 44.52L426.15 45.42L428.23 45.59L429.08 46.58L430.78 46.83L431.51 47.65L432.96 48.33L434.32 50.36L434.97 50.79L436.59 50.72L437.86 50.98L439.09 50.1L439.36 50.19L439.89 50.98L441 51.57L442.51 53.98L444.37 55.05L448.51 55.92L451.76 54.53L454.35 55.21L453.9 56.7L453.89 58.35L453.32 60.91L453.37 61.43L453.95 61.72L453.74 62.41L453.3 62.78L452.27 62.59L451 63.12L450.8 64.01L450.32 64.44L449.69 64.91L448.3 65.23L448.03 65.73L448.06 66.82L447.5 67.31L446.43 67.56L445.87 68.63L443.35 70.14L441.63 70.6L441.32 71.24L442.04 72.07L441.73 72.63L441.92 73.36L442.42 73.47L443.13 73.05L443.65 73.29L443.52 73.82V74.95L444.51 76.39L444.01 76.84L442.93 76.82L442.78 78.57L441.95 79.57L441.03 80.07L440.78 80.65L441.53 81.69L439.24 82.35L437.8 84.22L437.24 84.04L436.9 83.26L437.19 82.56L437.1 81.73L436.5 81.32L434.19 80.92L432.84 81.19L431.98 80.92L431.74 80.23L432.58 78.62L432.09 78.01L430.74 77.88L430.25 77.18L428.9 77.05L427.53 78.09L427.61 79.28L427.14 79.79L426.61 80.12L425.22 80.33L424.85 80.66L425.27 81.75L426.03 81.64L426.49 81.9L427.14 84.29L425.03 84.23L423.17 83.66L421.55 83.64L414.58 81.5L407.94 82.05L404.15 81.11L400.63 82.69L400.2 82.41L398.62 82.35L397.97 82.01L397.24 80.91L395.41 81.07L394.89 80.1L396.12 76.95L396.27 76.52L402.03 67.1L407.12 56.7L410.43 48.79L411.07 48.97L410.7 50.02L410.81 50.43L411.68 50.74L411.81 51.09L412.17 50.34L412.51 50.24L412.48 49.25L411.21 48.84L410.96 48.52L410.65 48.6L412.43 43.37Z"/>
</mask>
<path d="M412.43 43.37L416.06 43.72L418.59 43.57L423.85 44.52L426.15 45.42L428.23 45.59L429.08 46.58L430.78 46.83L431.51 47.65L432.96 48.33L434.32 50.36L434.97 50.79L436.59 50.72L437.86 50.98L439.09 50.1L439.36 50.19L439.89 50.98L441 51.57L442.51 53.98L444.37 55.05L448.51 55.92L451.76 54.53L454.35 55.21L453.9 56.7L453.89 58.35L453.32 60.91L453.37 61.43L453.95 61.72L453.74 62.41L453.3 62.78L452.27 62.59L451 63.12L450.8 64.01L450.32 64.44L449.69 64.91L448.3 65.23L448.03 65.73L448.06 66.82L447.5 67.31L446.43 67.56L445.87 68.63L443.35 70.14L441.63 70.6L441.32 71.24L442.04 72.07L441.73 72.63L441.92 73.36L442.42 73.47L443.13 73.05L443.65 73.29L443.52 73.82V74.95L444.51 76.39L444.01 76.84L442.93 76.82L442.78 78.57L441.95 79.57L441.03 80.07L440.78 80.65L441.53 81.69L439.24 82.35L437.8 84.22L437.24 84.04L436.9 83.26L437.19 82.56L437.1 81.73L436.5 81.32L434.19 80.92L432.84 81.19L431.98 80.92L431.74 80.23L432.58 78.62L432.09 78.01L430.74 77.88L430.25 77.18L428.9 77.05L427.53 78.09L427.61 79.28L427.14 79.79L426.61 80.12L425.22 80.33L424.85 80.66L425.27 81.75L426.03 81.64L426.49 81.9L427.14 84.29L425.03 84.23L423.17 83.66L421.55 83.64L414.58 81.5L407.94 82.05L404.15 81.11L400.63 82.69L400.2 82.41L398.62 82.35L397.97 82.01L397.24 80.91L395.41 81.07L394.89 80.1L396.12 76.95L396.27 76.52L402.03 67.1L407.12 56.7L410.43 48.79L411.07 48.97L410.7 50.02L410.81 50.43L411.68 50.74L411.81 51.09L412.17 50.34L412.51 50.24L412.48 49.25L411.21 48.84L410.96 48.52L410.65 48.6L412.43 43.37Z" fill="white" fill-opacity="0.3" stroke="black" stroke-width="1.4" mask="url(#path-3-inside-3)"/>
</g>
<g id="MA-03">
<mask id="path-4-inside-4" fill="white">
<path d="M500.69 30.65L501.16 30.97L500.72 31.46L500.99 31.63L500.9 32.04L501.77 33.07L503.65 33.67L505.3 33.39L505.61 34.7L505.1 37.65L505.47 39.28L505.48 41.68L505.78 42.11L505.64 47.68L506.18 47.98L506.26 48.83L506.65 49L508.34 48.79L508.46 49.06L507.87 49.56L508.19 50.02L510.21 49.77L511.75 50.76L513.39 50.55L513.82 51.03L513.39 51.69L513.84 52.56L513.7 53.94L512.8 55.49L513.15 56.09L514.1 56.58L514.16 57.12L513.57 57.4L512.15 57.39L511.9 57.65L512.32 59.58L512.18 60.22L511.31 61.02L511.46 61.34L513.4 60.66L514.04 61.4L514.1 62.39L514.41 62.77L516.31 63.52L517 63.47L517.89 60.5L518.67 60.18L518.78 59.16L520.06 59.56L521.2 58.23L523.7 56.8L524.28 55.61L524.24 54.33L524.73 54.01L529.56 54.09L530.37 54.55L531.71 56.34L532.94 56.3L534.8 57.39L535.34 58.09L536.89 58.63L537.02 59.12L536.36 60.86L537.81 61.62L537.92 62.27L537.54 62.44L535.46 61.53L533.19 62.62L533.34 64.05L532.69 66.58L531.34 66.67L531.56 67.63L531.3 68.15L530.45 68.35L529.96 69.18L527.58 70.36L527.23 71.13L527.36 71.59L526.98 71.97L527.14 72.84L527.82 73.74L528.95 74.92L530.71 76.09L530.95 80.7L532.55 82.07L532.59 82.71L531.15 85.85L530.14 86.5L526.39 87.9L526.04 88.57L525.89 90.72L527.63 92.06L530.28 95.72L531.29 98.03L531.38 100.2L527.99 99.59L526.52 99.06L523.76 97.04L520.51 96.33L519.94 96.01L518.19 93.9L517.3 93.63L517.01 93.2L515.98 92.74L515.47 91.89L514.97 91.87L514.46 92.01L513.88 93.62L512.91 94.2L510.87 97.9L509.36 99.12L507.93 99.66L507.62 100.39L506.27 101.84L504.86 102.75L504.61 104.1L504.22 104.31L503.41 105.62L500.24 107.02L498.94 107.9L494.94 108.25L493.39 106.29L494.73 104.25L494.82 103.51L493.84 102.92L493.06 102.89L492.34 102.99L490.98 103.93L489.96 102.2L490.13 99.06L491.05 97.54L493.03 96.33L492.58 96.02L490.07 96.14L489.6 95.73L489.01 95.67L488.48 93.62L488.28 93.41L487.25 93.39L486.21 92.65L485.26 92.66L482.51 94.66L481.97 94.54L480.58 93.42L479.26 93.25L477.89 92.65L476.77 91.52L476.81 88.3L476.69 87.67L475.88 86.69L475.99 86L475.47 85.62L474.08 85.54L473.01 84.68L471.52 84.59L471.11 84.16L469.74 83.86L468.86 82.2L469.04 81.34L468.77 80.11L467.87 80.4L467.26 80.3L467.41 78.89L467.22 78.26L466.68 78.08L465.76 78.58L463.92 78.59L463.9 77.8L463.26 77.39L463.38 76.96L464.36 76.82L463.72 75.86L463.26 75.81L462.56 76.5L461.88 76.69L461.64 76.29L462.21 75.64L461.77 74.9L458.59 74.63L458.17 75.29L457.77 75.32L457.63 74.98L457.88 74.53L457.48 74.5L456.31 75.37L455.93 75.26L455.98 74.45L455.55 74.13L453.72 73.81L452.14 74.42L451.34 75.21L450.48 74.94L450.13 75.22L448.88 75.28L447.09 75.97L446.44 75.04L445.07 75.57L443.48 73.86L443.61 73.33L443.09 73.09L442.38 73.51L441.88 73.4L441.69 72.67L442 72.11L441.28 71.28L441.59 70.64L443.31 70.18L445.83 68.67L446.39 67.6L447.46 67.35L448.02 66.86L447.99 65.77L448.26 65.27L449.65 64.95L450.28 64.48L450.76 64.05L450.96 63.16L452.23 62.63L453.26 62.82L453.7 62.45L453.91 61.76L453.33 61.47L453.28 60.95L453.85 58.39L453.86 56.74L454.31 55.25L455.44 53.95L457.92 52.78H458.81L459.44 52.36L460.45 52.68L463.26 51.94L464.41 51.99L465.9 51.22L466.71 51.1L467.46 49.8L468.09 49.29L468.92 49.25L472.94 45.74L476.78 45.06L479.32 43.4L480.25 40.99L480.07 38.63L479.41 37.94L479.58 36.59L480.67 35.33L481.65 35.66L482.49 35.45L484.37 35.96L484.93 35.51L485.5 35.46L485.9 35.01L486.85 34.8L487.12 34.54L488.27 34.06L489.58 34.21L489.71 33.95L491.59 33.42L492.1 33.65L492.68 33.52L495.89 32.17L496.15 31.78L496.54 31.95L497.25 31.64L497.51 32L498.63 31.81L500.05 30.76L500.69 30.65Z"/>
</mask>
<path d="M500.69 30.65L501.16 30.97L500.72 31.46L500.99 31.63L500.9 32.04L501.77 33.07L503.65 33.67L505.3 33.39L505.61 34.7L505.1 37.65L505.47 39.28L505.48 41.68L505.78 42.11L505.64 47.68L506.18 47.98L506.26 48.83L506.65 49L508.34 48.79L508.46 49.06L507.87 49.56L508.19 50.02L510.21 49.77L511.75 50.76L513.39 50.55L513.82 51.03L513.39 51.69L513.84 52.56L513.7 53.94L512.8 55.49L513.15 56.09L514.1 56.58L514.16 57.12L513.57 57.4L512.15 57.39L511.9 57.65L512.32 59.58L512.18 60.22L511.31 61.02L511.46 61.34L513.4 60.66L514.04 61.4L514.1 62.39L514.41 62.77L516.31 63.52L517 63.47L517.89 60.5L518.67 60.18L518.78 59.16L520.06 59.56L521.2 58.23L523.7 56.8L524.28 55.61L524.24 54.33L524.73 54.01L529.56 54.09L530.37 54.55L531.71 56.34L532.94 56.3L534.8 57.39L535.34 58.09L536.89 58.63L537.02 59.12L536.36 60.86L537.81 61.62L537.92 62.27L537.54 62.44L535.46 61.53L533.19 62.62L533.34 64.05L532.69 66.58L531.34 66.67L531.56 67.63L531.3 68.15L530.45 68.35L529.96 69.18L527.58 70.36L527.23 71.13L527.36 71.59L526.98 71.97L527.14 72.84L527.82 73.74L528.95 74.92L530.71 76.09L530.95 80.7L532.55 82.07L532.59 82.71L531.15 85.85L530.14 86.5L526.39 87.9L526.04 88.57L525.89 90.72L527.63 92.06L530.28 95.72L531.29 98.03L531.38 100.2L527.99 99.59L526.52 99.06L523.76 97.04L520.51 96.33L519.94 96.01L518.19 93.9L517.3 93.63L517.01 93.2L515.98 92.74L515.47 91.89L514.97 91.87L514.46 92.01L513.88 93.62L512.91 94.2L510.87 97.9L509.36 99.12L507.93 99.66L507.62 100.39L506.27 101.84L504.86 102.75L504.61 104.1L504.22 104.31L503.41 105.62L500.24 107.02L498.94 107.9L494.94 108.25L493.39 106.29L494.73 104.25L494.82 103.51L493.84 102.92L493.06 102.89L492.34 102.99L490.98 103.93L489.96 102.2L490.13 99.06L491.05 97.54L493.03 96.33L492.58 96.02L490.07 96.14L489.6 95.73L489.01 95.67L488.48 93.62L488.28 93.41L487.25 93.39L486.21 92.65L485.26 92.66L482.51 94.66L481.97 94.54L480.58 93.42L479.26 93.25L477.89 92.65L476.77 91.52L476.81 88.3L476.69 87.67L475.88 86.69L475.99 86L475.47 85.62L474.08 85.54L473.01 84.68L471.52 84.59L471.11 84.16L469.74 83.86L468.86 82.2L469.04 81.34L468.77 80.11L467.87 80.4L467.26 80.3L467.41 78.89L467.22 78.26L466.68 78.08L465.76 78.58L463.92 78.59L463.9 77.8L463.26 77.39L463.38 76.96L464.36 76.82L463.72 75.86L463.26 75.81L462.56 76.5L461.88 76.69L461.64 76.29L462.21 75.64L461.77 74.9L458.59 74.63L458.17 75.29L457.77 75.32L457.63 74.98L457.88 74.53L457.48 74.5L456.31 75.37L455.93 75.26L455.98 74.45L455.55 74.13L453.72 73.81L452.14 74.42L451.34 75.21L450.48 74.94L450.13 75.22L448.88 75.28L447.09 75.97L446.44 75.04L445.07 75.57L443.48 73.86L443.61 73.33L443.09 73.09L442.38 73.51L441.88 73.4L441.69 72.67L442 72.11L441.28 71.28L441.59 70.64L443.31 70.18L445.83 68.67L446.39 67.6L447.46 67.35L448.02 66.86L447.99 65.77L448.26 65.27L449.65 64.95L450.28 64.48L450.76 64.05L450.96 63.16L452.23 62.63L453.26 62.82L453.7 62.45L453.91 61.76L453.33 61.47L453.28 60.95L453.85 58.39L453.86 56.74L454.31 55.25L455.44 53.95L457.92 52.78H458.81L459.44 52.36L460.45 52.68L463.26 51.94L464.41 51.99L465.9 51.22L466.71 51.1L467.46 49.8L468.09 49.29L468.92 49.25L472.94 45.74L476.78 45.06L479.32 43.4L480.25 40.99L480.07 38.63L479.41 37.94L479.58 36.59L480.67 35.33L481.65 35.66L482.49 35.45L484.37 35.96L484.93 35.51L485.5 35.46L485.9 35.01L486.85 34.8L487.12 34.54L488.27 34.06L489.58 34.21L489.71 33.95L491.59 33.42L492.1 33.65L492.68 33.52L495.89 32.17L496.15 31.78L496.54 31.95L497.25 31.64L497.51 32L498.63 31.81L500.05 30.76L500.69 30.65Z" fill="white" fill-opacity="0.3" stroke="black" stroke-width="1.4" mask="url(#path-4-inside-4)"/>
</g>
<g id="MA-04">
<mask id="path-5-inside-5" fill="white">
<path d="M537.32 22.39L537.83 22.98L537.28 23.66L537.64 24.06L537.01 25.88L537.59 26.72L537.45 29.38L538.86 30.37L539.01 30.78L541.82 33.71L540.74 33.13L540.51 32.54L539.61 31.9L539.04 31.02L538.61 31.17L538.81 32.39L539.14 32.79L539.51 32.69L539.77 32.95L539.62 33.28L539.3 33.02L538.76 33.61L538.8 34.3L539.58 35.34L539.71 36.05L540.53 36.74L543.06 38.01L545.4 38.05L545.56 37.55L545.37 37.24L544.11 36.34L543.91 35.74L543.11 35.24L541.86 33.79L545.51 37.02L549.32 38.6L552.33 39.01L554.12 38.65L555.6 37.94L557.89 35.91L557.94 36.26L558.46 36.48L561.02 37.07L565.77 38.82L565.71 40.58L566.81 41.3L567.46 42.29L569.21 43.02L569.31 43.57L570.5 44.84L572.44 46.22L574.92 45.76L575.05 48.43L578 50.06L578.2 51.64L579.32 51.86L580.76 52.82L581.3 52.6L581.23 53.14L583.88 54.56L582.61 55.47L582.47 56.64L579.57 60.42L580.09 60.35L580.96 60.94L581.96 62.48V62.95L582.8 63.74L582.9 64.32L583.32 64.49L583.52 65.12L585.84 66.11L582.18 70.78L582.71 71.65L584.1 72.94L585.11 74.54L584.82 77.77L587.26 83.81L585.31 94.59L586.4 99.03L584.19 100.73L583.86 102.32L584.87 102.88L585.03 103.32L587.06 103.13L587.92 105.46L589.13 106.19L589.26 106.64L589 107.96L589.31 108.05L589.3 108.39L588.94 108.82L589.52 110.04L588.29 111.79L588.13 113.79L587.84 114.5L587.35 114.85L586.66 116.85L586.75 120.32L586.43 121.39L587.86 123.82L589 124.77L590 127.31L591.58 129.18L592.34 129.79L593.36 130.14L593.99 130.89L594.35 132.12L593.78 133.04L593.95 133.85L593.43 135.13L593.03 135.5L592.49 135.39L591.23 135.92L597.37 145.74L601.59 147.71L611.88 155.63L611.95 155.92L610.11 157.54L609.31 158.74L607.95 159.55L607.24 160.33L606.12 160.17L604.3 160.81L603.91 161.34L603.38 163.45L602.37 164.24L602.9 165L602.47 167.64L602.65 169.68L600.44 171.4L600.92 171.76L603.65 171.02L604.94 171.57L605.35 172.8L605.96 173.13L605.94 173.92L604.79 174.28L604.07 175.07L602.19 175.45L601.54 175L599.48 175.18L598.15 174.78L597.37 175.01L595.81 174.93L593.53 174.62L592.72 174.23L589.85 174.75L585.85 173.7L584.76 173.77L580.52 172.35L578.68 172.31L577.77 171.62H576.91L576.68 172.12L576.01 171.79L575.09 171.84L574.33 171.09L573.33 170.73L570.01 172.01L567.38 172.5L566.67 172.48L563.35 171.34L562.38 171.89L556.28 171.74L553.13 172.39L551.1 173.83L548.69 173.61L546.22 173.92L542.75 173.72L540.42 173.91L539.26 173.48L538.51 174.62L538.17 177.49L539.94 180.45L540.13 181.85L541.47 184.08L541.67 185.23L541.48 186.2L542.33 187.18L542.27 187.85L535.87 189.36L535.89 189.62L525.89 191.78L524.62 183.27L524.54 180.79L525.04 176.59L526.6 173.55L526.26 172.42L524.91 172L518.29 170.96L514.7 170.6L511.91 171.09L510.48 170.95L509.86 170.58L509.79 169.89L510.47 168.43L509.81 167.59L508.45 167.19L507.25 166.04L506.5 165.75L504.66 165.76L503.67 165.29L502.83 161.41L498.41 152.41L497.15 150.89L495.83 150.31L495.67 149.57L497.76 146.28L499.99 143.84L503.33 137.46L505.28 134.37L508.27 131.39L510.19 130.25L514.98 129.74L518.9 129.79L522.51 130.36L525.25 130.24L527.51 129.75L531.79 128L533.5 127.71L535.91 126.85L536.74 125.61L537.06 123.76L536.51 122.22L533.5 118.64L531.96 116.06L529.28 113.62L526.83 112.09L526.09 110.6L526.1 109.67L527.03 107.58L529.53 104.85L530.62 103.14L531.38 100.2L531.29 98.03L530.28 95.72L527.63 92.06L525.89 90.72L526.04 88.57L526.39 87.9L530.14 86.5L531.15 85.85L532.59 82.71L532.55 82.07L530.95 80.7L530.71 76.09L528.95 74.92L527.82 73.74L527.14 72.84L526.98 71.97L527.36 71.59L527.23 71.13L527.58 70.36L529.96 69.18L530.45 68.35L531.3 68.15L531.56 67.63L531.34 66.67L532.69 66.58L533.34 64.05L533.19 62.62L535.46 61.53L537.54 62.44L537.92 62.27L537.81 61.62L536.36 60.86L537.02 59.12L536.89 58.63L535.34 58.09L534.8 57.39L532.94 56.3L531.71 56.34L530.37 54.55L529.56 54.09L524.73 54.01L524.24 54.33L524.28 55.61L523.7 56.8L521.2 58.23L520.06 59.56L518.78 59.16L518.67 60.18L517.89 60.5L517 63.47L516.31 63.52L514.41 62.77L514.1 62.39L514.04 61.4L513.4 60.66L511.46 61.34L511.31 61.02L512.18 60.22L512.32 59.58L511.9 57.65L512.15 57.39L513.57 57.4L514.16 57.12L514.1 56.58L513.15 56.09L512.8 55.49L513.7 53.94L513.84 52.56L513.39 51.69L513.82 51.03L513.39 50.55L511.75 50.76L510.21 49.77L508.19 50.02L507.87 49.56L508.46 49.06L508.34 48.79L506.65 49L506.26 48.83L506.18 47.98L505.64 47.68L505.78 42.11L505.48 41.68L505.47 39.28L505.1 37.65L505.61 34.7L505.3 33.39L506.59 32.5L507.4 30.06L508.99 29.43L510.14 29.53L510.58 30.33L513.46 32.29L515.53 32.73L517.26 33.58L518.74 33.25L519.64 33.88L523.06 34.2L524.33 33.31L526.07 32.94L526.83 32.46L527.26 32.54L527.6 32.26L528.56 32.47L529.93 31.12L530.8 29.6L531.89 30.22L533.39 29.16L535.43 25.33L535.48 24.51L535.53 24.21L536.07 23.46L536.13 22.63L537.32 22.39Z"/>
</mask>
<path d="M537.32 22.39L537.83 22.98L537.28 23.66L537.64 24.06L537.01 25.88L537.59 26.72L537.45 29.38L538.86 30.37L539.01 30.78L541.82 33.71L540.74 33.13L540.51 32.54L539.61 31.9L539.04 31.02L538.61 31.17L538.81 32.39L539.14 32.79L539.51 32.69L539.77 32.95L539.62 33.28L539.3 33.02L538.76 33.61L538.8 34.3L539.58 35.34L539.71 36.05L540.53 36.74L543.06 38.01L545.4 38.05L545.56 37.55L545.37 37.24L544.11 36.34L543.91 35.74L543.11 35.24L541.86 33.79L545.51 37.02L549.32 38.6L552.33 39.01L554.12 38.65L555.6 37.94L557.89 35.91L557.94 36.26L558.46 36.48L561.02 37.07L565.77 38.82L565.71 40.58L566.81 41.3L567.46 42.29L569.21 43.02L569.31 43.57L570.5 44.84L572.44 46.22L574.92 45.76L575.05 48.43L578 50.06L578.2 51.64L579.32 51.86L580.76 52.82L581.3 52.6L581.23 53.14L583.88 54.56L582.61 55.47L582.47 56.64L579.57 60.42L580.09 60.35L580.96 60.94L581.96 62.48V62.95L582.8 63.74L582.9 64.32L583.32 64.49L583.52 65.12L585.84 66.11L582.18 70.78L582.71 71.65L584.1 72.94L585.11 74.54L584.82 77.77L587.26 83.81L585.31 94.59L586.4 99.03L584.19 100.73L583.86 102.32L584.87 102.88L585.03 103.32L587.06 103.13L587.92 105.46L589.13 106.19L589.26 106.64L589 107.96L589.31 108.05L589.3 108.39L588.94 108.82L589.52 110.04L588.29 111.79L588.13 113.79L587.84 114.5L587.35 114.85L586.66 116.85L586.75 120.32L586.43 121.39L587.86 123.82L589 124.77L590 127.31L591.58 129.18L592.34 129.79L593.36 130.14L593.99 130.89L594.35 132.12L593.78 133.04L593.95 133.85L593.43 135.13L593.03 135.5L592.49 135.39L591.23 135.92L597.37 145.74L601.59 147.71L611.88 155.63L611.95 155.92L610.11 157.54L609.31 158.74L607.95 159.55L607.24 160.33L606.12 160.17L604.3 160.81L603.91 161.34L603.38 163.45L602.37 164.24L602.9 165L602.47 167.64L602.65 169.68L600.44 171.4L600.92 171.76L603.65 171.02L604.94 171.57L605.35 172.8L605.96 173.13L605.94 173.92L604.79 174.28L604.07 175.07L602.19 175.45L601.54 175L599.48 175.18L598.15 174.78L597.37 175.01L595.81 174.93L593.53 174.62L592.72 174.23L589.85 174.75L585.85 173.7L584.76 173.77L580.52 172.35L578.68 172.31L577.77 171.62H576.91L576.68 172.12L576.01 171.79L575.09 171.84L574.33 171.09L573.33 170.73L570.01 172.01L567.38 172.5L566.67 172.48L563.35 171.34L562.38 171.89L556.28 171.74L553.13 172.39L551.1 173.83L548.69 173.61L546.22 173.92L542.75 173.72L540.42 173.91L539.26 173.48L538.51 174.62L538.17 177.49L539.94 180.45L540.13 181.85L541.47 184.08L541.67 185.23L541.48 186.2L542.33 187.18L542.27 187.85L535.87 189.36L535.89 189.62L525.89 191.78L524.62 183.27L524.54 180.79L525.04 176.59L526.6 173.55L526.26 172.42L524.91 172L518.29 170.96L514.7 170.6L511.91 171.09L510.48 170.95L509.86 170.58L509.79 169.89L510.47 168.43L509.81 167.59L508.45 167.19L507.25 166.04L506.5 165.75L504.66 165.76L503.67 165.29L502.83 161.41L498.41 152.41L497.15 150.89L495.83 150.31L495.67 149.57L497.76 146.28L499.99 143.84L503.33 137.46L505.28 134.37L508.27 131.39L510.19 130.25L514.98 129.74L518.9 129.79L522.51 130.36L525.25 130.24L527.51 129.75L531.79 128L533.5 127.71L535.91 126.85L536.74 125.61L537.06 123.76L536.51 122.22L533.5 118.64L531.96 116.06L529.28 113.62L526.83 112.09L526.09 110.6L526.1 109.67L527.03 107.58L529.53 104.85L530.62 103.14L531.38 100.2L531.29 98.03L530.28 95.72L527.63 92.06L525.89 90.72L526.04 88.57L526.39 87.9L530.14 86.5L531.15 85.85L532.59 82.71L532.55 82.07L530.95 80.7L530.71 76.09L528.95 74.92L527.82 73.74L527.14 72.84L526.98 71.97L527.36 71.59L527.23 71.13L527.58 70.36L529.96 69.18L530.45 68.35L531.3 68.15L531.56 67.63L531.34 66.67L532.69 66.58L533.34 64.05L533.19 62.62L535.46 61.53L537.54 62.44L537.92 62.27L537.81 61.62L536.36 60.86L537.02 59.12L536.89 58.63L535.34 58.09L534.8 57.39L532.94 56.3L531.71 56.34L530.37 54.55L529.56 54.09L524.73 54.01L524.24 54.33L524.28 55.61L523.7 56.8L521.2 58.23L520.06 59.56L518.78 59.16L518.67 60.18L517.89 60.5L517 63.47L516.31 63.52L514.41 62.77L514.1 62.39L514.04 61.4L513.4 60.66L511.46 61.34L511.31 61.02L512.18 60.22L512.32 59.58L511.9 57.65L512.15 57.39L513.57 57.4L514.16 57.12L514.1 56.58L513.15 56.09L512.8 55.49L513.7 53.94L513.84 52.56L513.39 51.69L513.82 51.03L513.39 50.55L511.75 50.76L510.21 49.77L508.19 50.02L507.87 49.56L508.46 49.06L508.34 48.79L506.65 49L506.26 48.83L506.18 47.98L505.64 47.68L505.78 42.11L505.48 41.68L505.47 39.28L505.1 37.65L505.61 34.7L505.3 33.39L506.59 32.5L507.4 30.06L508.99 29.43L510.14 29.53L510.58 30.33L513.46 32.29L515.53 32.73L517.26 33.58L518.74 33.25L519.64 33.88L523.06 34.2L524.33 33.31L526.07 32.94L526.83 32.46L527.26 32.54L527.6 32.26L528.56 32.47L529.93 31.12L530.8 29.6L531.89 30.22L533.39 29.16L535.43 25.33L535.48 24.51L535.53 24.21L536.07 23.46L536.13 22.63L537.32 22.39Z" fill="white" fill-opacity="0.3" stroke="black" stroke-width="1.4" mask="url(#path-5-inside-5)"/>
</g>
<g id="MA-05">
<mask id="path-6-inside-6" fill="white">
<path d="M443.55 73.84L445.15 75.55L446.51 75.02L447.16 75.95L448.96 75.26L450.2 75.2L450.55 74.92L451.41 75.19L452.21 74.4L453.79 73.79L455.62 74.1L456.05 74.43L456.01 75.24L456.38 75.35L457.55 74.48L457.95 74.52L457.71 74.97L457.84 75.31L458.25 75.27L458.67 74.62L461.85 74.89L462.29 75.63L461.72 76.28L461.96 76.68L462.64 76.49L463.34 75.8L463.8 75.86L464.45 76.81L463.47 76.95L463.35 77.39L463.99 77.8L464.01 78.59L465.84 78.58L466.77 78.08L467.31 78.27L467.5 78.9L467.35 80.31L467.96 80.41L468.85 80.12L469.13 81.35L468.95 82.2L469.83 83.86L471.2 84.16L471.61 84.59L473.1 84.67L474.16 85.54L475.55 85.62L476.07 86L475.96 86.69L476.76 87.67L476.88 88.3L476.85 91.52L477.96 92.65L479.33 93.25L480.65 93.42L482.04 94.54L482.58 94.66L485.33 92.66L486.27 92.65L487.32 93.39L488.35 93.41L488.55 93.62L489.07 95.67L489.66 95.73L490.13 96.14L492.63 96.03L493.08 96.33L491.1 97.55L490.18 99.07L490 102.21L491.02 103.94L492.39 102.99L493.1 102.9L493.88 102.92L494.86 103.52L494.77 104.26L493.42 106.3L494.97 108.25L498.97 107.91L500.27 107.03L503.43 105.63L504.25 104.32L504.63 104.11L504.88 102.75L506.29 101.84L507.63 100.39L507.94 99.65L509.37 99.12L510.88 97.9L512.92 94.2L513.9 93.62L514.48 92.01L514.99 91.87L515.5 91.89L516 92.74L517.04 93.2L517.33 93.63L518.22 93.9L519.97 96.01L520.54 96.33L523.79 97.04L526.55 99.06L528.02 99.59L531.41 100.2L530.65 103.14L529.56 104.86L527.07 107.58L526.14 109.67L526.13 110.61L526.86 112.1L529.31 113.62L531.99 116.06L533.53 118.64L536.54 122.22L537.09 123.76L536.77 125.61L535.94 126.85L533.54 127.71L531.83 128L527.54 129.75L525.29 130.24L522.55 130.37L518.94 129.79L515.02 129.74L510.23 130.26L508.31 131.4L505.32 134.38L503.37 137.47L500.03 143.85L497.8 146.29L495.71 149.58L495.87 150.32L494.51 150.87L493.4 150.94L490.63 150.89L489.22 150.53L488.12 150.75L487.21 150.43L486.9 149.87L486.78 146.7L483.3 143.19L481.76 142.21L480.82 140.17L480.2 139.48L479.64 139.11L477.1 138.9L472.51 139.59L470.8 138.89L469.3 137.73L468.94 136.84L469.05 135.77L469.53 135.02L469.66 134.2L466.13 130.21L464.16 123.91L462.79 120.78L460.46 118.71L459.75 117.33L459.63 116.44L459.88 115.66L463.78 110.01L464.08 108.99L463.83 107.52L462.21 105.8L460.05 104.05L456.4 103.55L455.54 103.01L455.13 102.15L455.11 101.14L456.86 96.56L456.63 94.29L455.35 92.25L454.46 91.73L453.64 88.63L451.41 88L450.26 88.04L449.71 87.38L449.06 85.81L448.58 85.42L447.58 85.21L446.34 85.81L445.8 85.63L445.42 83.46L445.62 80.46L445.41 78.35L445 76.9L444.55 76.42L443.56 74.98L443.55 73.84Z"/>
</mask>
<path d="M443.55 73.84L445.15 75.55L446.51 75.02L447.16 75.95L448.96 75.26L450.2 75.2L450.55 74.92L451.41 75.19L452.21 74.4L453.79 73.79L455.62 74.1L456.05 74.43L456.01 75.24L456.38 75.35L457.55 74.48L457.95 74.52L457.71 74.97L457.84 75.31L458.25 75.27L458.67 74.62L461.85 74.89L462.29 75.63L461.72 76.28L461.96 76.68L462.64 76.49L463.34 75.8L463.8 75.86L464.45 76.81L463.47 76.95L463.35 77.39L463.99 77.8L464.01 78.59L465.84 78.58L466.77 78.08L467.31 78.27L467.5 78.9L467.35 80.31L467.96 80.41L468.85 80.12L469.13 81.35L468.95 82.2L469.83 83.86L471.2 84.16L471.61 84.59L473.1 84.67L474.16 85.54L475.55 85.62L476.07 86L475.96 86.69L476.76 87.67L476.88 88.3L476.85 91.52L477.96 92.65L479.33 93.25L480.65 93.42L482.04 94.54L482.58 94.66L485.33 92.66L486.27 92.65L487.32 93.39L488.35 93.41L488.55 93.62L489.07 95.67L489.66 95.73L490.13 96.14L492.63 96.03L493.08 96.33L491.1 97.55L490.18 99.07L490 102.21L491.02 103.94L492.39 102.99L493.1 102.9L493.88 102.92L494.86 103.52L494.77 104.26L493.42 106.3L494.97 108.25L498.97 107.91L500.27 107.03L503.43 105.63L504.25 104.32L504.63 104.11L504.88 102.75L506.29 101.84L507.63 100.39L507.94 99.65L509.37 99.12L510.88 97.9L512.92 94.2L513.9 93.62L514.48 92.01L514.99 91.87L515.5 91.89L516 92.74L517.04 93.2L517.33 93.63L518.22 93.9L519.97 96.01L520.54 96.33L523.79 97.04L526.55 99.06L528.02 99.59L531.41 100.2L530.65 103.14L529.56 104.86L527.07 107.58L526.14 109.67L526.13 110.61L526.86 112.1L529.31 113.62L531.99 116.06L533.53 118.64L536.54 122.22L537.09 123.76L536.77 125.61L535.94 126.85L533.54 127.71L531.83 128L527.54 129.75L525.29 130.24L522.55 130.37L518.94 129.79L515.02 129.74L510.23 130.26L508.31 131.4L505.32 134.38L503.37 137.47L500.03 143.85L497.8 146.29L495.71 149.58L495.87 150.32L494.51 150.87L493.4 150.94L490.63 150.89L489.22 150.53L488.12 150.75L487.21 150.43L486.9 149.87L486.78 146.7L483.3 143.19L481.76 142.21L480.82 140.17L480.2 139.48L479.64 139.11L477.1 138.9L472.51 139.59L470.8 138.89L469.3 137.73L468.94 136.84L469.05 135.77L469.53 135.02L469.66 134.2L466.13 130.21L464.16 123.91L462.79 120.78L460.46 118.71L459.75 117.33L459.63 116.44L459.88 115.66L463.78 110.01L464.08 108.99L463.83 107.52L462.21 105.8L460.05 104.05L456.4 103.55L455.54 103.01L455.13 102.15L455.11 101.14L456.86 96.56L456.63 94.29L455.35 92.25L454.46 91.73L453.64 88.63L451.41 88L450.26 88.04L449.71 87.38L449.06 85.81L448.58 85.42L447.58 85.21L446.34 85.81L445.8 85.63L445.42 83.46L445.62 80.46L445.41 78.35L445 76.9L444.55 76.42L443.56 74.98L443.55 73.84Z" fill="white" fill-opacity="0.3" stroke="black" stroke-width="1.4" mask="url(#path-6-inside-6)"/>
</g>
<g id="MA-06">
<mask id="path-7-inside-7" fill="white">
<path d="M444.55 76.42L445 76.9L445.41 78.35L445.62 80.46L445.42 83.46L445.8 85.63L446.34 85.81L447.58 85.21L448.58 85.42L449.06 85.81L449.71 87.38L450.26 88.04L451.41 88L453.64 88.63L454.46 91.73L455.35 92.25L456.63 94.29L456.86 96.56L455.11 101.14L455.13 102.15L455.54 103.01L456.4 103.55L460.05 104.05L462.21 105.8L463.83 107.52L464.08 108.99L463.78 110.01L459.88 115.66L459.63 116.44L459.75 117.33L460.46 118.71L462.79 120.78L464.16 123.91L466.13 130.21L469.66 134.2L469.53 135.02L469.05 135.77L468.94 136.84L469.3 137.73L470.8 138.89L472.51 139.59L477.1 138.9L479.64 139.11L480.2 139.48L480.82 140.17L481.76 142.21L483.3 143.19L486.78 146.7L486.9 149.87L487.21 150.43L488.12 150.75L489.22 150.53L490.63 150.89L493.4 150.94L494.51 150.87L495.87 150.32L497.18 150.9L498.45 152.42L502.87 161.41L503.7 165.29L504.69 165.76L506.53 165.75L507.28 166.05L508.48 167.19L509.84 167.6L510.5 168.44L509.82 169.89L509.9 170.58L510.52 170.96L511.95 171.1L514.74 170.6L518.33 170.96L524.95 172L526.3 172.42L526.64 173.55L525.09 176.59L524.58 180.78L524.67 183.26L525.94 191.77L510.7 195.17V205.46L511.37 205.8L510.85 206.51L510.39 206.19L510.14 206.83L508.92 207.21L508.86 207.74L508.5 208.09L508.01 208.02L507.8 207.36L507.49 207.26L507.16 207.89L507.3 208.19L506.91 208.45L506.98 209.49L506.11 210.28L506.24 210.55L506.52 210.32L506.72 210.92L507.21 210.74L507.13 211.57L506.2 212.22L506.33 212.52L505.91 212.78L506.22 213.42L506.61 213.36L506.83 215.07L507.11 215.26L506.44 216.69L506.61 217.92L507.07 217.66L507.79 217.7L508.2 218.04L508.46 217.24L508.07 216.76L508.96 216.4L508.83 215.89L509.28 215.44L509.57 215.84L510.08 215.92L510.44 216.53L510.5 217.92L510.14 219.39L510.63 219.23L510.7 218.69L511.46 219.09L511.77 218.81L511.48 218.35L511.46 217.47L511.2 217.28L511.69 216.96L511.76 218.3L512.03 218.51L512.55 217.94L512.49 218.83L512.96 219L513.04 219.96L513.48 219.93L513.46 220.64L514.15 221.31L514.22 220.93L514.71 221.04L514.63 220.53L514.97 220.39L514.87 221.43L515.12 221.81L515.36 221.51L515.52 224.37L515.11 224.82L515.4 224.85L515.42 225.19L514.78 225.49L514.96 225.91L514.73 225.85L514.69 226.33L514.1 226.12L514.09 226.63L513.67 226.77L513.81 227.27L513.41 227.86L512.98 227.85L512.56 229.13L512.24 229.17L511.91 229.02L511.25 229.95L511.1 231.71L510.71 232.06L510.95 233.4L511.48 233.18L512.09 233.52L512.56 234.94L512.05 235.21L511.62 236.3L503.88 239.59L498.12 241.13L492.39 241.46L485.76 243.94L474.88 254.73L462.38 260.95L455.46 266.8L454.14 262.98L453.62 262.7L452.62 261.32L452.26 259.47L451.76 258.51L452 255.2L451.9 249.68L452.33 247.42L452.3 240.21L450.41 237.62L450.22 236.74L449.1 235.34L447.08 231.82L446.37 228.43L446.29 227.1L447.43 221.52L448.29 214.85L449.88 211.13L450.8 207.77L450.98 205.14L450.72 203.78L450.25 202.7L449.11 201.42L448.17 200.82L445.21 199.91L442.45 198.22L441.46 196.39L440.86 195.91L435.56 194.46L432.84 195.1L430.11 194.71L429.63 194.22L430.08 192.84L438.75 183.66L439.76 181.54L439.32 180.96L434.12 177.41L433.18 177.36L430.68 179.14L429.18 179.51L429.45 178.76L429.1 177.43L428.25 177.14L427.91 176.4L428.17 175.77L429.03 175.39L428.83 173.84L429.82 173.15L429.85 171.6L430.7 170.78L432.07 170.71L432.82 170L433.39 169.26L433.59 167.95L433.87 167.65L434.76 167.21L437.08 166.77L439 167.23L439.63 166.79L439.83 165.69L438.84 164.85L439.72 162.84L439.26 162.02L439.94 161L440.06 159.94L440.9 158.71L439.94 156.5L438.55 154.51L438.15 153.05L435.91 152.84L435.57 152.28L433.98 151.17L432.85 150.97L431.58 152.04L430.59 151.97L430.09 149.38L429.7 148.59L428.92 148.19L428.09 147.11L427.32 147.27L426.67 146.95L426.01 145.57L424.31 144.58L421.97 144.95L421.53 144.77L421.2 144.14L421.4 142.87L421.06 142.37L421.14 142L421.94 141.49L420.58 139.67L420.33 138.41L419.59 138.12L417.82 138.9L417.17 138.91L416.6 138.43L416.69 136.73L418.39 136.37L419.04 135.89L419.11 135.23L418.76 134.79L417.09 134.07L416.76 132.42L414.62 131.39L412.86 129.68L411.35 129.18L410.91 127.98L407.18 126.71L406.82 126.04L406.93 125.28L407.36 124.48L408.07 123.95L408.2 123.23L407.23 121.34L408 119.57L407.59 118.88L408.09 117.09L408.66 116.61L410.97 116.08L412 116.06L413.17 116.78L413.72 116.66L414.27 116.02L414.8 116.3L415.23 117.21L415.66 117.4L416.58 117.27L416.89 117.56L416.88 118.37L417.21 118.81L417.34 121L417.89 121.77L419.41 121.93L419.83 122.49L420.56 122.62L421.33 122.24L422.84 120.5L424.28 120.04L429.02 121.43L429.9 121.11L430.61 119.76L430.67 118.48L430.08 116.88L429.95 113.49L430.36 108.56L431.08 105.8L431.63 100.15L431.54 98.42L431.1 97.73L430.1 97.09L429.82 96.42L429.76 95.55L430.13 94.52L429.51 94.24L428.73 94.49L428.49 93.97L428.51 93.01L430.56 91.07L430.22 89.36L427.76 87.32L427.27 86.59L427.13 84.3L426.49 81.9L426.03 81.64L425.27 81.76L424.85 80.67L425.21 80.34L426.61 80.13L427.14 79.8L427.62 79.29L427.54 78.1L428.91 77.06L430.25 77.18L430.75 77.88L432.09 78.01L432.58 78.62L431.75 80.24L431.98 80.93L432.84 81.19L434.19 80.93L436.5 81.32L437.1 81.73L437.25 82.59L436.96 83.29L437.3 84.07L437.86 84.25L439.3 82.38L441.59 81.71L440.84 80.68L441.08 80.1L442 79.6L442.83 78.59L442.98 76.84L444.06 76.86L444.55 76.42Z"/>
</mask>
<path d="M444.55 76.42L445 76.9L445.41 78.35L445.62 80.46L445.42 83.46L445.8 85.63L446.34 85.81L447.58 85.21L448.58 85.42L449.06 85.81L449.71 87.38L450.26 88.04L451.41 88L453.64 88.63L454.46 91.73L455.35 92.25L456.63 94.29L456.86 96.56L455.11 101.14L455.13 102.15L455.54 103.01L456.4 103.55L460.05 104.05L462.21 105.8L463.83 107.52L464.08 108.99L463.78 110.01L459.88 115.66L459.63 116.44L459.75 117.33L460.46 118.71L462.79 120.78L464.16 123.91L466.13 130.21L469.66 134.2L469.53 135.02L469.05 135.77L468.94 136.84L469.3 137.73L470.8 138.89L472.51 139.59L477.1 138.9L479.64 139.11L480.2 139.48L480.82 140.17L481.76 142.21L483.3 143.19L486.78 146.7L486.9 149.87L487.21 150.43L488.12 150.75L489.22 150.53L490.63 150.89L493.4 150.94L494.51 150.87L495.87 150.32L497.18 150.9L498.45 152.42L502.87 161.41L503.7 165.29L504.69 165.76L506.53 165.75L507.28 166.05L508.48 167.19L509.84 167.6L510.5 168.44L509.82 169.89L509.9 170.58L510.52 170.96L511.95 171.1L514.74 170.6L518.33 170.96L524.95 172L526.3 172.42L526.64 173.55L525.09 176.59L524.58 180.78L524.67 183.26L525.94 191.77L510.7 195.17V205.46L511.37 205.8L510.85 206.51L510.39 206.19L510.14 206.83L508.92 207.21L508.86 207.74L508.5 208.09L508.01 208.02L507.8 207.36L507.49 207.26L507.16 207.89L507.3 208.19L506.91 208.45L506.98 209.49L506.11 210.28L506.24 210.55L506.52 210.32L506.72 210.92L507.21 210.74L507.13 211.57L506.2 212.22L506.33 212.52L505.91 212.78L506.22 213.42L506.61 213.36L506.83 215.07L507.11 215.26L506.44 216.69L506.61 217.92L507.07 217.66L507.79 217.7L508.2 218.04L508.46 217.24L508.07 216.76L508.96 216.4L508.83 215.89L509.28 215.44L509.57 215.84L510.08 215.92L510.44 216.53L510.5 217.92L510.14 219.39L510.63 219.23L510.7 218.69L511.46 219.09L511.77 218.81L511.48 218.35L511.46 217.47L511.2 217.28L511.69 216.96L511.76 218.3L512.03 218.51L512.55 217.94L512.49 218.83L512.96 219L513.04 219.96L513.48 219.93L513.46 220.64L514.15 221.31L514.22 220.93L514.71 221.04L514.63 220.53L514.97 220.39L514.87 221.43L515.12 221.81L515.36 221.51L515.52 224.37L515.11 224.82L515.4 224.85L515.42 225.19L514.78 225.49L514.96 225.91L514.73 225.85L514.69 226.33L514.1 226.12L514.09 226.63L513.67 226.77L513.81 227.27L513.41 227.86L512.98 227.85L512.56 229.13L512.24 229.17L511.91 229.02L511.25 229.95L511.1 231.71L510.71 232.06L510.95 233.4L511.48 233.18L512.09 233.52L512.56 234.94L512.05 235.21L511.62 236.3L503.88 239.59L498.12 241.13L492.39 241.46L485.76 243.94L474.88 254.73L462.38 260.95L455.46 266.8L454.14 262.98L453.62 262.7L452.62 261.32L452.26 259.47L451.76 258.51L452 255.2L451.9 249.68L452.33 247.42L452.3 240.21L450.41 237.62L450.22 236.74L449.1 235.34L447.08 231.82L446.37 228.43L446.29 227.1L447.43 221.52L448.29 214.85L449.88 211.13L450.8 207.77L450.98 205.14L450.72 203.78L450.25 202.7L449.11 201.42L448.17 200.82L445.21 199.91L442.45 198.22L441.46 196.39L440.86 195.91L435.56 194.46L432.84 195.1L430.11 194.71L429.63 194.22L430.08 192.84L438.75 183.66L439.76 181.54L439.32 180.96L434.12 177.41L433.18 177.36L430.68 179.14L429.18 179.51L429.45 178.76L429.1 177.43L428.25 177.14L427.91 176.4L428.17 175.77L429.03 175.39L428.83 173.84L429.82 173.15L429.85 171.6L430.7 170.78L432.07 170.71L432.82 170L433.39 169.26L433.59 167.95L433.87 167.65L434.76 167.21L437.08 166.77L439 167.23L439.63 166.79L439.83 165.69L438.84 164.85L439.72 162.84L439.26 162.02L439.94 161L440.06 159.94L440.9 158.71L439.94 156.5L438.55 154.51L438.15 153.05L435.91 152.84L435.57 152.28L433.98 151.17L432.85 150.97L431.58 152.04L430.59 151.97L430.09 149.38L429.7 148.59L428.92 148.19L428.09 147.11L427.32 147.27L426.67 146.95L426.01 145.57L424.31 144.58L421.97 144.95L421.53 144.77L421.2 144.14L421.4 142.87L421.06 142.37L421.14 142L421.94 141.49L420.58 139.67L420.33 138.41L419.59 138.12L417.82 138.9L417.17 138.91L416.6 138.43L416.69 136.73L418.39 136.37L419.04 135.89L419.11 135.23L418.76 134.79L417.09 134.07L416.76 132.42L414.62 131.39L412.86 129.68L411.35 129.18L410.91 127.98L407.18 126.71L406.82 126.04L406.93 125.28L407.36 124.48L408.07 123.95L408.2 123.23L407.23 121.34L408 119.57L407.59 118.88L408.09 117.09L408.66 116.61L410.97 116.08L412 116.06L413.17 116.78L413.72 116.66L414.27 116.02L414.8 116.3L415.23 117.21L415.66 117.4L416.58 117.27L416.89 117.56L416.88 118.37L417.21 118.81L417.34 121L417.89 121.77L419.41 121.93L419.83 122.49L420.56 122.62L421.33 122.24L422.84 120.5L424.28 120.04L429.02 121.43L429.9 121.11L430.61 119.76L430.67 118.48L430.08 116.88L429.95 113.49L430.36 108.56L431.08 105.8L431.63 100.15L431.54 98.42L431.1 97.73L430.1 97.09L429.82 96.42L429.76 95.55L430.13 94.52L429.51 94.24L428.73 94.49L428.49 93.97L428.51 93.01L430.56 91.07L430.22 89.36L427.76 87.32L427.27 86.59L427.13 84.3L426.49 81.9L426.03 81.64L425.27 81.76L424.85 80.67L425.21 80.34L426.61 80.13L427.14 79.8L427.62 79.29L427.54 78.1L428.91 77.06L430.25 77.18L430.75 77.88L432.09 78.01L432.58 78.62L431.75 80.24L431.98 80.93L432.84 81.19L434.19 80.93L436.5 81.32L437.1 81.73L437.25 82.59L436.96 83.29L437.3 84.07L437.86 84.25L439.3 82.38L441.59 81.71L440.84 80.68L441.08 80.1L442 79.6L442.83 78.59L442.98 76.84L444.06 76.86L444.55 76.42Z" fill="white" fill-opacity="0.3" stroke="black" stroke-width="1.4" mask="url(#path-7-inside-7)"/>
</g>
<g id="MA-07">
<mask id="path-8-inside-8" fill="white">
<path d="M394.89 80.1L395.41 81.07L397.24 80.91L397.97 82.01L398.62 82.35L400.2 82.41L400.63 82.69L404.15 81.11L407.94 82.05L414.58 81.5L421.55 83.64L423.17 83.66L425.03 84.23L427.14 84.29L427.28 86.58L427.77 87.32L430.23 89.36L430.57 91.07L428.52 93.01L428.5 93.97L428.74 94.49L429.52 94.23L430.14 94.51L429.76 95.54L429.83 96.41L430.11 97.08L431.1 97.72L431.55 98.41L431.64 100.13L431.09 105.78L430.37 108.55L429.96 113.47L430.09 116.86L430.69 118.46L430.62 119.74L429.91 121.09L429.03 121.41L424.29 120.03L422.85 120.49L421.35 122.23L420.57 122.61L419.84 122.48L419.41 121.92L417.89 121.76L417.34 120.99L417.2 118.8L416.87 118.36L416.88 117.55L416.57 117.26L415.65 117.4L415.22 117.21L414.8 116.3L414.26 116.03L413.71 116.67L413.17 116.79L411.99 116.08L410.97 116.09L408.65 116.63L408.08 117.1L407.58 118.9L407.99 119.59L407.22 121.36L408.2 123.25L405.98 124.47L405.19 124.42L403.62 125.44L402.6 127.29L402.07 127.62L400.45 125.36L398.94 124.3L395.96 124.53L395.13 124.84L393.31 124.01L391.95 124.69L389.83 123.7L390.28 122.54L389.86 119.73L389.99 119.09L390.94 117.87L391.16 116.67L389.9 114.91L389.43 113.67L389.38 112.63L391.77 108.99L392.12 107.31L391.14 107.22L390.57 107.61L387.83 107.77L387.46 107.13L386.73 106.8L385.95 105.54L384.58 104.94H383.98L383.94 105.34L383.39 105.31L383.73 104.19L382.55 102.19L382.52 100.2L382.19 99L381.31 97.5L379.62 97.37L379.11 96.45L381.41 94.55L381.82 94.65L382.79 94.25L383.83 93.4L383.8 93.15L384.64 92.83L384.75 92.4L385.31 92.21L385.6 91.67L387.18 90.3L390.06 86.83L392.04 84.62L394.89 80.1Z"/>
</mask>
<path d="M394.89 80.1L395.41 81.07L397.24 80.91L397.97 82.01L398.62 82.35L400.2 82.41L400.63 82.69L404.15 81.11L407.94 82.05L414.58 81.5L421.55 83.64L423.17 83.66L425.03 84.23L427.14 84.29L427.28 86.58L427.77 87.32L430.23 89.36L430.57 91.07L428.52 93.01L428.5 93.97L428.74 94.49L429.52 94.23L430.14 94.51L429.76 95.54L429.83 96.41L430.11 97.08L431.1 97.72L431.55 98.41L431.64 100.13L431.09 105.78L430.37 108.55L429.96 113.47L430.09 116.86L430.69 118.46L430.62 119.74L429.91 121.09L429.03 121.41L424.29 120.03L422.85 120.49L421.35 122.23L420.57 122.61L419.84 122.48L419.41 121.92L417.89 121.76L417.34 120.99L417.2 118.8L416.87 118.36L416.88 117.55L416.57 117.26L415.65 117.4L415.22 117.21L414.8 116.3L414.26 116.03L413.71 116.67L413.17 116.79L411.99 116.08L410.97 116.09L408.65 116.63L408.08 117.1L407.58 118.9L407.99 119.59L407.22 121.36L408.2 123.25L405.98 124.47L405.19 124.42L403.62 125.44L402.6 127.29L402.07 127.62L400.45 125.36L398.94 124.3L395.96 124.53L395.13 124.84L393.31 124.01L391.95 124.69L389.83 123.7L390.28 122.54L389.86 119.73L389.99 119.09L390.94 117.87L391.16 116.67L389.9 114.91L389.43 113.67L389.38 112.63L391.77 108.99L392.12 107.31L391.14 107.22L390.57 107.61L387.83 107.77L387.46 107.13L386.73 106.8L385.95 105.54L384.58 104.94H383.98L383.94 105.34L383.39 105.31L383.73 104.19L382.55 102.19L382.52 100.2L382.19 99L381.31 97.5L379.62 97.37L379.11 96.45L381.41 94.55L381.82 94.65L382.79 94.25L383.83 93.4L383.8 93.15L384.64 92.83L384.75 92.4L385.31 92.21L385.6 91.67L387.18 90.3L390.06 86.83L392.04 84.62L394.89 80.1Z" fill="white" fill-opacity="0.3" stroke="black" stroke-width="1.4" mask="url(#path-8-inside-8)"/>
</g>
<path id="MA-08" d="M368.409 102.648L368.705 102.216L368.735 102.34H369.01H369.59H369.64L369.689 102.326L369.84 102.281L370.087 102.237L369.419 102.987L369.266 103.158L369.362 103.367L369.667 104.026L368.642 104.291L368.154 104.417L368.443 104.831L368.607 105.064L368.193 105.941L368.088 106.163L368.263 106.337L368.352 106.427L368.206 107.195L368.172 107.375L368.3 107.505L368.715 107.927L368.351 108.92L368.309 109.035L368.348 109.152L368.708 110.222L368.749 110.341L368.856 110.408L369.412 110.751L369.594 111.548L369.264 111.386L368.957 111.235L368.799 111.539L368.593 111.936L367.984 112.15L367.619 112.278L367.783 112.628L368.1 113.305L366.824 113.473L366.558 113.508L366.523 113.774L366.486 114.053L365.735 114.196L365.647 114.213L365.579 114.269L364.115 115.464L364.108 115.458L363.918 115.318L363.88 115.291L363.837 115.274L362.147 114.614L362.098 114.595L362.044 114.591L360.744 114.501L360.624 114.493L360.525 114.559L360.09 114.851L359.732 114.409L359.565 114.204L359.321 114.309L358.035 114.864L357.944 114.367L357.91 114.18L357.734 114.107L356.703 113.678L356.332 113.117L356.18 112.888L355.922 112.981L355.324 113.195L355.056 112.985L354.894 112.857L354.703 112.938L354.192 113.155L353.699 112.654L353.562 112.515L353.37 112.559L352.871 112.676L352.219 112.441L352.092 112.395L351.967 112.446L351.065 112.817L350.437 112.174L350.321 111.698L352.51 110.39L352.572 110.353L352.58 110.342L352.658 110.494L352.876 110.49L353.486 110.48L353.593 110.478L353.681 110.417L353.943 110.233L354.01 110.209L354.03 110.202L354.049 110.192L355.399 109.502L355.411 109.496L355.421 109.489L357.121 108.459L357.233 108.392L357.273 108.267L357.373 107.959L357.455 107.98L357.659 108.031L357.8 107.874L358.266 107.357L358.777 107.241L358.921 107.209L358.999 107.083L359.148 106.839L359.226 106.938L359.448 107.216L359.722 106.99L359.928 106.821L360.378 106.93L360.453 106.948L360.467 106.946L360.753 107.078L361.25 107.307V107.293L361.651 107.774L361.664 107.126L361.877 107.002L363.006 106.342L364.158 106.113L364.244 106.096L364.312 106.041L367.312 103.581L367.359 103.542L367.39 103.49L367.501 103.305L368.319 102.738L368.372 102.701L368.409 102.648ZM363.454 116.242L363.081 117.762L362.286 119.212L361.727 119.245L361.436 119.091L360.922 117.264L361.947 116.704L363.454 116.242Z" fill="white" fill-opacity="0.3" stroke="black" stroke-width="0.7"/>
<g id="MA-09">
<mask id="path-10-inside-9" fill="white">
<path d="M379.12 96.43L379.63 97.35L381.32 97.48L382.2 98.98L382.53 100.18L382.56 102.17L383.74 104.17L383.4 105.29L383.95 105.32L383.99 104.92H384.59L385.96 105.52L386.74 106.78L387.47 107.11L387.84 107.75L390.58 107.59L391.15 107.2L392.13 107.29L391.78 108.97L389.39 112.61L389.44 113.65L389.91 114.89L391.17 116.65L390.95 117.85L390 119.07L389.87 119.71L390.29 122.52L389.84 123.68L391.96 124.67L393.32 123.99L395.14 124.82L395.97 124.51L398.95 124.28L400.46 125.34L402.08 127.6L402.61 127.27L403.63 125.42L405.2 124.4L405.99 124.45L408.21 123.23L408.08 123.95L407.37 124.48L406.94 125.28L406.83 126.04L407.2 126.7L410.92 127.97L411.36 129.17L412.87 129.68L414.63 131.39L416.77 132.42L417.1 134.07L418.77 134.79L419.12 135.23L419.05 135.89L418.4 136.38L416.7 136.73L416.61 138.44L417.18 138.92L417.82 138.91L419.59 138.13L420.33 138.43L420.58 139.69L421.94 141.51L421.15 142.02L421.06 142.39L421.4 142.89L421.2 144.16L421.54 144.79L420.56 145.67L420.05 146.65L418.65 147.5L414.89 147.88L412.11 148.95L408.06 149.04L407.34 148.83L405.23 149.04L403.69 148.33L401.56 147.93L399.63 148.27L399.05 148.86L398.53 148.98L398.3 149.37L398.79 149.87L398.62 150.36L396.87 150.17L395.8 149.61L393.9 149.54L392.68 148.98L392.27 149.06L391.96 149.68L390.39 149.88L389.14 150.99L387.32 151.65H386.47L385.63 150.72L384.75 150.47L384.91 150.99L384.47 152.2L384.22 156.25L382.44 161.07L380.3 163.27L379.75 162.48L378.29 162.32L377.59 161.29L376.46 160.9L375.16 159.75L372.74 159.47L371.03 157.07L368.11 157.22L366.99 157.84L366.49 157.45L366.12 157.7L366.16 158.52L364.42 159.61L363.16 159.72L362.35 159.17L362.04 159.64H361.67L360.59 157.86L359.57 155.3L359.05 154.46L357.99 154.05L356.6 150.83L356.06 150.17L355.48 149.78L354.21 149.62L353.15 148.7L349.65 147.62L349.46 146.49L347.81 144.13L347.2 142.4L346.37 142.37L346.94 141.78L346.9 141.59L346.09 141.57L346.15 141.12L346.9 140.7L346.69 140.49L345.94 140.31L345.11 140.99L344.11 141.01L345.15 140.12L344.31 139.65L344.49 138.33L344.84 137.94L343.9 137.08L344.65 136.73L344.46 136.28L343.81 135.93L344.39 135.54L344.24 134.96L344.82 134.4L344.27 133.72L344.46 133.45L345.07 133.47L345.09 133.16L344.33 132.29L344.65 130.18L344.46 129.93L343.77 130.31L343.44 130.12L343.85 129.5L342.82 128.72L342.75 127.89L342.21 127.77L342 128.14L341.77 128.08V127.73L341.27 127.24L341.33 126.89L342.23 126.74L342.89 125.58L343.09 124.46L343.76 124.15L344.68 124.44L346.06 124.33L346.62 123.5L345.72 123.07L347.31 122.4L348.52 120.76L347.45 120.37L347.28 119.4L346.82 119.55L346.52 119.16L347.67 118.37L347.02 117.71L347.83 116.4L347.34 116.05L347.17 115.27L345.69 113.32L347.28 112.44L348.41 112.3L349.95 111.56L350.15 112.38L351.01 113.26L352.13 112.8L352.88 113.07L353.48 112.93L354.14 113.6L354.87 113.29L355.29 113.62L356.07 113.34L356.5 113.99L357.63 114.46L357.8 115.39L359.49 114.66L360.05 115.35L360.75 114.88L362.05 114.97L363.74 115.63L363.93 115.77L361.84 116.41L360.54 117.12L361.17 119.36L361.68 119.63L362.53 119.58L363.44 117.92L363.87 116.17L365.83 114.57L366.83 114.38L366.9 113.85L368.65 113.62L368.13 112.51L368.87 112.25L369.14 111.73L369.63 111.97L370.03 111.78L369.75 110.56L369.07 110.14L368.71 109.07L369.15 107.87L368.58 107.29L368.76 106.34L368.54 106.12L369.04 105.06L368.76 104.66L370.19 104.29L369.71 103.25L370.69 102.15L370.67 101.55H370.64V101.38L370.82 101.32L370.95 100.97L371.98 100.4L373.85 98.63L374.56 98.39L374.9 97.96L375.29 97.97L375.28 97.63L376.94 97.57L377.49 97.09L377.86 97.06L378.45 96.52L378.76 96.86L379.12 96.43Z"/>
</mask>
<path d="M379.12 96.43L379.63 97.35L381.32 97.48L382.2 98.98L382.53 100.18L382.56 102.17L383.74 104.17L383.4 105.29L383.95 105.32L383.99 104.92H384.59L385.96 105.52L386.74 106.78L387.47 107.11L387.84 107.75L390.58 107.59L391.15 107.2L392.13 107.29L391.78 108.97L389.39 112.61L389.44 113.65L389.91 114.89L391.17 116.65L390.95 117.85L390 119.07L389.87 119.71L390.29 122.52L389.84 123.68L391.96 124.67L393.32 123.99L395.14 124.82L395.97 124.51L398.95 124.28L400.46 125.34L402.08 127.6L402.61 127.27L403.63 125.42L405.2 124.4L405.99 124.45L408.21 123.23L408.08 123.95L407.37 124.48L406.94 125.28L406.83 126.04L407.2 126.7L410.92 127.97L411.36 129.17L412.87 129.68L414.63 131.39L416.77 132.42L417.1 134.07L418.77 134.79L419.12 135.23L419.05 135.89L418.4 136.38L416.7 136.73L416.61 138.44L417.18 138.92L417.82 138.91L419.59 138.13L420.33 138.43L420.58 139.69L421.94 141.51L421.15 142.02L421.06 142.39L421.4 142.89L421.2 144.16L421.54 144.79L420.56 145.67L420.05 146.65L418.65 147.5L414.89 147.88L412.11 148.95L408.06 149.04L407.34 148.83L405.23 149.04L403.69 148.33L401.56 147.93L399.63 148.27L399.05 148.86L398.53 148.98L398.3 149.37L398.79 149.87L398.62 150.36L396.87 150.17L395.8 149.61L393.9 149.54L392.68 148.98L392.27 149.06L391.96 149.68L390.39 149.88L389.14 150.99L387.32 151.65H386.47L385.63 150.72L384.75 150.47L384.91 150.99L384.47 152.2L384.22 156.25L382.44 161.07L380.3 163.27L379.75 162.48L378.29 162.32L377.59 161.29L376.46 160.9L375.16 159.75L372.74 159.47L371.03 157.07L368.11 157.22L366.99 157.84L366.49 157.45L366.12 157.7L366.16 158.52L364.42 159.61L363.16 159.72L362.35 159.17L362.04 159.64H361.67L360.59 157.86L359.57 155.3L359.05 154.46L357.99 154.05L356.6 150.83L356.06 150.17L355.48 149.78L354.21 149.62L353.15 148.7L349.65 147.62L349.46 146.49L347.81 144.13L347.2 142.4L346.37 142.37L346.94 141.78L346.9 141.59L346.09 141.57L346.15 141.12L346.9 140.7L346.69 140.49L345.94 140.31L345.11 140.99L344.11 141.01L345.15 140.12L344.31 139.65L344.49 138.33L344.84 137.94L343.9 137.08L344.65 136.73L344.46 136.28L343.81 135.93L344.39 135.54L344.24 134.96L344.82 134.4L344.27 133.72L344.46 133.45L345.07 133.47L345.09 133.16L344.33 132.29L344.65 130.18L344.46 129.93L343.77 130.31L343.44 130.12L343.85 129.5L342.82 128.72L342.75 127.89L342.21 127.77L342 128.14L341.77 128.08V127.73L341.27 127.24L341.33 126.89L342.23 126.74L342.89 125.58L343.09 124.46L343.76 124.15L344.68 124.44L346.06 124.33L346.62 123.5L345.72 123.07L347.31 122.4L348.52 120.76L347.45 120.37L347.28 119.4L346.82 119.55L346.52 119.16L347.67 118.37L347.02 117.71L347.83 116.4L347.34 116.05L347.17 115.27L345.69 113.32L347.28 112.44L348.41 112.3L349.95 111.56L350.15 112.38L351.01 113.26L352.13 112.8L352.88 113.07L353.48 112.93L354.14 113.6L354.87 113.29L355.29 113.62L356.07 113.34L356.5 113.99L357.63 114.46L357.8 115.39L359.49 114.66L360.05 115.35L360.75 114.88L362.05 114.97L363.74 115.63L363.93 115.77L361.84 116.41L360.54 117.12L361.17 119.36L361.68 119.63L362.53 119.58L363.44 117.92L363.87 116.17L365.83 114.57L366.83 114.38L366.9 113.85L368.65 113.62L368.13 112.51L368.87 112.25L369.14 111.73L369.63 111.97L370.03 111.78L369.75 110.56L369.07 110.14L368.71 109.07L369.15 107.87L368.58 107.29L368.76 106.34L368.54 106.12L369.04 105.06L368.76 104.66L370.19 104.29L369.71 103.25L370.69 102.15L370.67 101.55H370.64V101.38L370.82 101.32L370.95 100.97L371.98 100.4L373.85 98.63L374.56 98.39L374.9 97.96L375.29 97.97L375.28 97.63L376.94 97.57L377.49 97.09L377.86 97.06L378.45 96.52L378.76 96.86L379.12 96.43Z" fill="white" fill-opacity="0.3" stroke="black" stroke-width="1.4" mask="url(#path-10-inside-9)"/>
</g>
<g id="MA-10">
<mask id="path-11-inside-10" fill="white">
<path d="M345.68 113.29L347.16 115.24L347.33 116.02L347.82 116.37L347.01 117.68L347.66 118.34L346.51 119.13L346.81 119.52L347.27 119.37L347.44 120.34L348.51 120.73L347.3 122.37L345.71 123.04L346.61 123.47L346.05 124.3L344.67 124.41L343.75 124.12L343.08 124.43L342.88 125.55L342.22 126.71L341.32 126.86L341.26 127.21L341.76 127.7V128.05L341.99 128.11L342.2 127.74L342.74 127.86L342.81 128.69L343.84 129.47L343.43 130.09L343.76 130.28L344.45 129.9L344.64 130.15L344.32 132.26L345.08 133.13L345.06 133.44L344.45 133.42L344.26 133.69L344.81 134.37L344.23 134.93L344.38 135.51L343.8 135.9L344.45 136.25L344.64 136.7L343.89 137.05L344.83 137.91L344.48 138.3L344.3 139.62L345.14 140.09L344.1 140.98L345.1 140.96L345.93 140.28L346.68 140.46L346.89 140.67L346.14 141.09L346.08 141.54L346.89 141.56L346.93 141.75L346.36 142.34L345.58 142.58L344.67 143.61L344.45 144.74L344.91 145.83L344.58 146.24V146.96L343.19 148.04L343.44 148.51L343.19 149.25L344.26 150.89L344.47 152L344.21 153.28L343.98 153.49L343.54 153.29L342.2 155.21L341.23 155.91L340.67 156.74L339.53 157.26L339.01 157.88L336.64 157.92L336.02 158.44L336.05 159.98L335.82 160.33L334.16 160.32L333.04 160.8L332.24 162.1L329.31 163.04L329.02 164.51L329.15 165.43L330.33 168.34L331.94 170.56L333.46 171.9L334.77 172.14L337.07 173.41L338.61 174.71L338.76 175.36L338.71 176.16L338.23 175.48L337.59 175.38L337.44 177.35L336.02 178.2L334.36 179.67L332.95 182.2L332.71 183.71L331.79 184.88L331.63 185.56L329.9 187.73L330.6 190.07L331.22 190.21L332.45 191.9L331.34 192.32L330.83 192.22L329.57 191.31L326.82 192.48L324.84 191.82L324.11 190.62L322.99 189.96L319.8 190.44L319.19 190.77L318.26 190.29L317.75 190.4L316.98 191.41L316.69 191.49L316.33 190.88L315.8 191.7L315.37 191.62L314.04 190.45L313.02 190.85L312.52 190.47L312.55 189.63L310.27 189.1L309.98 188.39L307.91 187.21L307.36 184.74L306.73 183.58L304.76 182.89L299.8 182.42L297.14 182.86L295.07 182.67L291.42 181.35L294.41 177.85L294.83 177.49L294.89 177.37L295.04 176.74L294.79 176.76L295.42 175.92L295.68 173.82L297.99 171.03L298.31 169.88L298.36 168.86L297.82 167.59L298.64 165.44L298.58 165.15L298.4 164.6L297.25 164.13L296.88 162.59L297.07 161.99L298.48 160.24L299.13 157.56L297.95 156.31L297.59 155.2L297.06 154.55L303.36 149.18L306.27 145.72L306.45 145.97L306.82 145.48L306.38 145.59L311.69 141.2L315.87 136.58L316.27 135.95L317.15 135.02H317.6L317.92 134.38L317.63 134.47L317.59 134.86L317.07 134.91L318.65 133.02L319.24 132.71L319.27 132.38L320.06 131.01L321.96 128.87L322.08 128.57L322.21 128.28L322.35 127.9L321.47 128.31L321.9 127.86L322.64 127.65L321.99 126.66L322.16 126.23L323.64 124.54L324.83 123.9L324.7 123.49L325.18 122.86L326.54 121.9L326.9 122L327.12 122.36L326.92 122.59L327.35 122.94L329.01 122.63L330.89 121.51L332.56 119.93L333.18 119.65L334.43 117.51L337.85 116.62L339.04 115.76L340.99 115.36L345.68 113.29Z"/>
</mask>
<path d="M345.68 113.29L347.16 115.24L347.33 116.02L347.82 116.37L347.01 117.68L347.66 118.34L346.51 119.13L346.81 119.52L347.27 119.37L347.44 120.34L348.51 120.73L347.3 122.37L345.71 123.04L346.61 123.47L346.05 124.3L344.67 124.41L343.75 124.12L343.08 124.43L342.88 125.55L342.22 126.71L341.32 126.86L341.26 127.21L341.76 127.7V128.05L341.99 128.11L342.2 127.74L342.74 127.86L342.81 128.69L343.84 129.47L343.43 130.09L343.76 130.28L344.45 129.9L344.64 130.15L344.32 132.26L345.08 133.13L345.06 133.44L344.45 133.42L344.26 133.69L344.81 134.37L344.23 134.93L344.38 135.51L343.8 135.9L344.45 136.25L344.64 136.7L343.89 137.05L344.83 137.91L344.48 138.3L344.3 139.62L345.14 140.09L344.1 140.98L345.1 140.96L345.93 140.28L346.68 140.46L346.89 140.67L346.14 141.09L346.08 141.54L346.89 141.56L346.93 141.75L346.36 142.34L345.58 142.58L344.67 143.61L344.45 144.74L344.91 145.83L344.58 146.24V146.96L343.19 148.04L343.44 148.51L343.19 149.25L344.26 150.89L344.47 152L344.21 153.28L343.98 153.49L343.54 153.29L342.2 155.21L341.23 155.91L340.67 156.74L339.53 157.26L339.01 157.88L336.64 157.92L336.02 158.44L336.05 159.98L335.82 160.33L334.16 160.32L333.04 160.8L332.24 162.1L329.31 163.04L329.02 164.51L329.15 165.43L330.33 168.34L331.94 170.56L333.46 171.9L334.77 172.14L337.07 173.41L338.61 174.71L338.76 175.36L338.71 176.16L338.23 175.48L337.59 175.38L337.44 177.35L336.02 178.2L334.36 179.67L332.95 182.2L332.71 183.71L331.79 184.88L331.63 185.56L329.9 187.73L330.6 190.07L331.22 190.21L332.45 191.9L331.34 192.32L330.83 192.22L329.57 191.31L326.82 192.48L324.84 191.82L324.11 190.62L322.99 189.96L319.8 190.44L319.19 190.77L318.26 190.29L317.75 190.4L316.98 191.41L316.69 191.49L316.33 190.88L315.8 191.7L315.37 191.62L314.04 190.45L313.02 190.85L312.52 190.47L312.55 189.63L310.27 189.1L309.98 188.39L307.91 187.21L307.36 184.74L306.73 183.58L304.76 182.89L299.8 182.42L297.14 182.86L295.07 182.67L291.42 181.35L294.41 177.85L294.83 177.49L294.89 177.37L295.04 176.74L294.79 176.76L295.42 175.92L295.68 173.82L297.99 171.03L298.31 169.88L298.36 168.86L297.82 167.59L298.64 165.44L298.58 165.15L298.4 164.6L297.25 164.13L296.88 162.59L297.07 161.99L298.48 160.24L299.13 157.56L297.95 156.31L297.59 155.2L297.06 154.55L303.36 149.18L306.27 145.72L306.45 145.97L306.82 145.48L306.38 145.59L311.69 141.2L315.87 136.58L316.27 135.95L317.15 135.02H317.6L317.92 134.38L317.63 134.47L317.59 134.86L317.07 134.91L318.65 133.02L319.24 132.71L319.27 132.38L320.06 131.01L321.96 128.87L322.08 128.57L322.21 128.28L322.35 127.9L321.47 128.31L321.9 127.86L322.64 127.65L321.99 126.66L322.16 126.23L323.64 124.54L324.83 123.9L324.7 123.49L325.18 122.86L326.54 121.9L326.9 122L327.12 122.36L326.92 122.59L327.35 122.94L329.01 122.63L330.89 121.51L332.56 119.93L333.18 119.65L334.43 117.51L337.85 116.62L339.04 115.76L340.99 115.36L345.68 113.29Z" fill="white" fill-opacity="0.3" stroke="black" stroke-width="1.4" mask="url(#path-11-inside-10)"/>
</g>
<g id="MA-12">
<mask id="path-12-inside-11" fill="white">
<path d="M421.53 144.77L421.97 144.95L424.31 144.58L426.01 145.57L426.67 146.95L427.32 147.27L428.09 147.11L428.92 148.19L429.7 148.59L430.09 149.38L430.59 151.97L431.58 152.04L432.85 150.97L433.98 151.17L435.57 152.28L435.91 152.84L438.15 153.05L438.55 154.51L439.94 156.5L440.9 158.71L440.06 159.94L439.94 161L439.26 162.02L439.72 162.84L438.84 164.85L439.83 165.69L439.63 166.79L439 167.23L437.08 166.77L434.76 167.21L433.87 167.65L433.59 167.95L433.39 169.26L432.82 170L432.07 170.71L430.7 170.78L429.85 171.6L429.82 173.15L428.83 173.84L429.03 175.39L428.17 175.77L427.91 176.4L428.25 177.14L429.1 177.43L429.45 178.76L429.18 179.51L429.1 180.88L429.41 181.61L429.4 182.45L429 183.1L427.16 184.5L427.01 185.07L425.11 184.99L423.7 186.86L420.1 188.45L420 190.33L419.58 191.32L418.17 191.33L417.43 191.61L415.86 191.32L414.4 192.24L413.46 193.54L407.37 195.93L401.64 199.49L399.3 200.28L397.39 199.78L396.22 200.33L394.4 200.59L393.3 201.97L393.16 202.7L393.76 204.35L393.22 204.86L392.42 207.21L391.64 207.03L390.76 207.39L390.29 206.66L388.41 206.89L387.34 207.43L381.16 205.59L378.52 205.55L378.09 204.31L378.01 202.97L378.16 201.71L379.38 198.25L379.51 196.82L379.28 195.97L378.55 195.83L376.6 196.19L376.19 196.5L375.51 196.09L375.76 194.53L374.2 193.59L373.86 192.9V190.07L374.48 189.21L375.61 188.53L376.48 188.37L377.48 188.43L379 189.26L381.46 188.69L383.27 188.98L383.91 188.38L383.52 186.79L383.71 186.08L384.55 185.98L384.86 185.53L382.94 183.18L383.09 182.41L382.64 181.87L382.75 181.2L383.61 180.24L383.17 178.5L381.88 177.95L380.77 176.11L380.33 172.27L380.73 170.67L379.96 167.15L380.34 165.73L380.28 163.24L382.42 161.04L384.2 156.22L384.45 152.17L384.89 150.96L384.73 150.44L385.61 150.69L386.46 151.62H387.3L389.13 150.96L390.37 149.86L391.95 149.66L392.26 149.04L392.67 148.96L393.89 149.52L395.79 149.59L396.86 150.14L398.62 150.34L398.79 149.84L398.29 149.35L398.53 148.96L399.04 148.84L399.63 148.25L401.55 147.91L403.68 148.31L405.22 149.02L407.33 148.8L408.05 149.01L412.1 148.92L414.88 147.86L418.65 147.48L420.04 146.63L420.55 145.65L421.53 144.77Z"/>
</mask>
<path d="M421.53 144.77L421.97 144.95L424.31 144.58L426.01 145.57L426.67 146.95L427.32 147.27L428.09 147.11L428.92 148.19L429.7 148.59L430.09 149.38L430.59 151.97L431.58 152.04L432.85 150.97L433.98 151.17L435.57 152.28L435.91 152.84L438.15 153.05L438.55 154.51L439.94 156.5L440.9 158.71L440.06 159.94L439.94 161L439.26 162.02L439.72 162.84L438.84 164.85L439.83 165.69L439.63 166.79L439 167.23L437.08 166.77L434.76 167.21L433.87 167.65L433.59 167.95L433.39 169.26L432.82 170L432.07 170.71L430.7 170.78L429.85 171.6L429.82 173.15L428.83 173.84L429.03 175.39L428.17 175.77L427.91 176.4L428.25 177.14L429.1 177.43L429.45 178.76L429.18 179.51L429.1 180.88L429.41 181.61L429.4 182.45L429 183.1L427.16 184.5L427.01 185.07L425.11 184.99L423.7 186.86L420.1 188.45L420 190.33L419.58 191.32L418.17 191.33L417.43 191.61L415.86 191.32L414.4 192.24L413.46 193.54L407.37 195.93L401.64 199.49L399.3 200.28L397.39 199.78L396.22 200.33L394.4 200.59L393.3 201.97L393.16 202.7L393.76 204.35L393.22 204.86L392.42 207.21L391.64 207.03L390.76 207.39L390.29 206.66L388.41 206.89L387.34 207.43L381.16 205.59L378.52 205.55L378.09 204.31L378.01 202.97L378.16 201.71L379.38 198.25L379.51 196.82L379.28 195.97L378.55 195.83L376.6 196.19L376.19 196.5L375.51 196.09L375.76 194.53L374.2 193.59L373.86 192.9V190.07L374.48 189.21L375.61 188.53L376.48 188.37L377.48 188.43L379 189.26L381.46 188.69L383.27 188.98L383.91 188.38L383.52 186.79L383.71 186.08L384.55 185.98L384.86 185.53L382.94 183.18L383.09 182.41L382.64 181.87L382.75 181.2L383.61 180.24L383.17 178.5L381.88 177.95L380.77 176.11L380.33 172.27L380.73 170.67L379.96 167.15L380.34 165.73L380.28 163.24L382.42 161.04L384.2 156.22L384.45 152.17L384.89 150.96L384.73 150.44L385.61 150.69L386.46 151.62H387.3L389.13 150.96L390.37 149.86L391.95 149.66L392.26 149.04L392.67 148.96L393.89 149.52L395.79 149.59L396.86 150.14L398.62 150.34L398.79 149.84L398.29 149.35L398.53 148.96L399.04 148.84L399.63 148.25L401.55 147.91L403.68 148.31L405.22 149.02L407.33 148.8L408.05 149.01L412.1 148.92L414.88 147.86L418.65 147.48L420.04 146.63L420.55 145.65L421.53 144.77Z" fill="white" fill-opacity="0.3" stroke="black" stroke-width="1.4" mask="url(#path-12-inside-11)"/>
</g>
<g id="MA-13">
<mask id="path-13-inside-12" fill="white">
<path d="M429.18 179.51L430.68 179.14L433.18 177.35L434.12 177.4L439.32 180.95L439.76 181.53L438.74 183.65L430.07 192.83L429.62 194.21L430.1 194.7L432.83 195.09L435.55 194.45L440.85 195.9L441.45 196.38L442.44 198.22L445.2 199.9L448.15 200.81L449.1 201.41L450.24 202.68L450.71 203.76L450.97 205.12L450.79 207.75L449.87 211.11L448.28 214.83L447.42 221.5L446.28 227.09L446.36 228.42L447.07 231.81L449.09 235.33L450.21 236.73L450.4 237.62L452.29 240.21L452.32 247.42L451.9 249.68L452 255.2L451.76 258.51L452.26 259.47L452.62 261.32L453.61 262.7L454.14 262.98L455.46 266.8L454.7 267.04L450.82 269.98L450.36 270.77L449.1 271.56L447.52 274.21L447.78 275.91L447.25 277.19L439.56 288.13L438.91 288.4L439.19 288.85L438.76 289.8L438.49 289.89L438.01 289.33L436.95 289.36L436.05 288.81L435.25 288.68L433.81 287.16L432.83 288.02L431.51 288.09L431.7 286.79L432.45 285.67L432.49 285.14L431.63 284.51L429.57 283.9L427.15 284.19L426.53 284.71L423.58 284.96L421.31 285.72L420.52 285.69L419.57 286.16L415.67 285.3L413.56 285.5V285.71L412.55 286.04L410.95 285.82L407.75 285.94L407.29 286.22L407.13 286.71L406.8 286.28L406.94 285.07L406.55 282.28L407.07 278.42L406.88 274.83L407.68 271.1L407.49 264.66L405.92 260.94L400.13 251.8L398.5 250.05L396.64 249.04L395.63 249.1L394.8 249.4L393.66 250.45L391.8 253.03L390.74 253.33L388.79 254.46H386.9L383.3 252.8L381.74 252.56L381.17 252.76L379.44 254.64L377.74 258.55L377.1 261.79L376.21 262.44L370.39 262.18L368.48 261.83L367.37 260.71L367 258.33L366.66 257.63L366.07 256.91L363.11 254.99L361.43 255.94L359.95 257.24L358.83 259.42L358.71 260.27L359.84 265.76L359.78 266.4L359.07 267.25L358.46 267.6L356.33 267.51L353.55 266.68L352.09 266.89L350.47 267.95L347.91 270.62L346.07 271.08L345.5 271.49L344.04 271.22L341.45 270.11L337.15 267.04L336.1 266.81L335.27 267L334.06 268.03L332.85 271.03L332.02 272.16L331.27 272.61L330.08 272.66L323.88 269.61L322.85 269.34L321.19 269.27L319.88 269.62L318.53 270.83L318.6 272.97L319.27 273.55L320.84 272.94L321.87 273L322.09 273.32L321.89 274.68L320.46 276.18L319.32 277.96L318.94 279.44L318.81 284.65L319.58 286.47L320.83 287.39L321.15 288.2L320.67 289.08L312.3 291.56L311.25 292.11L308.64 292.17L306.24 291.81L305.72 292.1L304.81 292.72L303.53 295.35L302.08 301.47L301.92 300.81L300.69 299.22L300.1 297.72L298.69 296.95L297.05 297.01L295.99 296.55L294.43 296.96L293.66 298.48L292.25 299.64L289.32 300.19L286.94 301.45L284.54 302.08L283.96 301.8L282.51 302.02L282.15 301.83L281.19 300.1L279.96 299.03L278.54 298.9L277.59 299.19L276.43 300.57L274.87 304.95L274.42 305.38L273 305.98L271.46 305.55L270.05 306.01L266.04 308.97L264.91 309.12L264.38 308.82L263.94 308.05L263.02 307.78L261.21 308.15L257.06 307.65L255.79 307.92L255.07 307.77L253.28 306.37L253.86 304.89L254.56 304.54L254.69 303.77L257.03 301.09L257.44 300.27L258.76 299.11L260.42 298.27L261.81 296.93L263.08 294.16L264.08 292.69L265.41 291.45L266.22 289.62L267.03 288.78L267.31 288.2L267.17 287.43L267.52 287.19L267.47 286.76L267.86 286.53L267.72 286.05L268.03 285.9L268.05 285.28L268.56 284.93L269.01 283.81L270.23 282.31L270.63 281.2L276.36 275.55L276.61 274.82L277.98 272.96L277.92 272.45L278.96 270.91L279.02 270.22L281.56 264.85L282.38 263.76L282.51 263.66L282.58 263.05L283.54 259.71L283.55 258.16L284.87 251.47L285 251.24L285.17 251.2L284.87 250.63L285.25 249.84L285.08 249.17L284.63 248.52L284.49 248.75L284.15 248.71L283.95 248.76L283.42 248.31L283.39 248.02L282.87 247.63L282.21 245.23L281.82 244.85L281.31 243.41L279.84 242.97L279.6 241.97L278.2 240.38L276.61 239.62L275.01 239.78L274.18 239.47L274.62 236.78L275.68 235.45L275.61 234.92L277.36 231.34L277.32 230.48L277.05 230.17L276.7 230.34L276.55 229.9L277.28 227.95L276.8 227.09V225.32L279.65 228.2L280.51 230.44L280.35 230.71L282.42 230.78L283.31 230.48L285.24 231.29L286.33 230.79L287.72 228.8L288.11 229.08L287.84 230.11L288.01 230.37L289.28 230.66L290.59 231.37L291.62 231.22L292.3 230.75L294.8 230.48L295.69 231.28L297.77 231.5L298.96 230.78L300.85 230.74L302.83 229.87L306.3 230.4L307.25 229.94L308.15 228.43L312.27 226.6L313.34 225.86L314.83 224.1L315.63 224.03L316.29 224.18L316.69 225.15L318.2 225.54L318.92 226.28L319.91 229.86L321.25 229.7L322.57 228.45L323.69 228.2L329.86 228.35L331.12 227.04L331.94 226.83L333.76 227.3L337.7 226.63L339.04 226.26L342.22 224.76L343.43 225.76L343.29 227.18L343.8 227.32L346.37 225.82L349.55 223.02L349.83 221.84L349.48 221.27L349.64 220.98L352.34 219.52L355.47 216.58L357.62 215.53L359.85 215.5L361.3 215.11L362.32 214.48L365.41 211.24L367.27 210.34L370.77 210.15L373.29 209.59L375.28 206.84L376.26 206.19L378.51 205.52L381.15 205.56L387.34 207.41L388.41 206.86L390.29 206.64L390.76 207.37L391.64 207.01L392.42 207.19L393.23 204.83L393.77 204.32L393.17 202.67L393.32 201.94L394.41 200.56L396.23 200.3L397.4 199.75L399.32 200.24L401.66 199.45L407.39 195.89L413.48 193.5L414.41 192.2L415.87 191.27L417.44 191.57L418.18 191.29L419.59 191.28L420.01 190.29L420.11 188.42L423.71 186.82L425.12 184.96L427.02 185.04L427.17 184.47L429.01 183.06L429.41 182.41L429.42 181.57L429.1 180.83L429.18 179.51Z"/>
</mask>
<path d="M429.18 179.51L430.68 179.14L433.18 177.35L434.12 177.4L439.32 180.95L439.76 181.53L438.74 183.65L430.07 192.83L429.62 194.21L430.1 194.7L432.83 195.09L435.55 194.45L440.85 195.9L441.45 196.38L442.44 198.22L445.2 199.9L448.15 200.81L449.1 201.41L450.24 202.68L450.71 203.76L450.97 205.12L450.79 207.75L449.87 211.11L448.28 214.83L447.42 221.5L446.28 227.09L446.36 228.42L447.07 231.81L449.09 235.33L450.21 236.73L450.4 237.62L452.29 240.21L452.32 247.42L451.9 249.68L452 255.2L451.76 258.51L452.26 259.47L452.62 261.32L453.61 262.7L454.14 262.98L455.46 266.8L454.7 267.04L450.82 269.98L450.36 270.77L449.1 271.56L447.52 274.21L447.78 275.91L447.25 277.19L439.56 288.13L438.91 288.4L439.19 288.85L438.76 289.8L438.49 289.89L438.01 289.33L436.95 289.36L436.05 288.81L435.25 288.68L433.81 287.16L432.83 288.02L431.51 288.09L431.7 286.79L432.45 285.67L432.49 285.14L431.63 284.51L429.57 283.9L427.15 284.19L426.53 284.71L423.58 284.96L421.31 285.72L420.52 285.69L419.57 286.16L415.67 285.3L413.56 285.5V285.71L412.55 286.04L410.95 285.82L407.75 285.94L407.29 286.22L407.13 286.71L406.8 286.28L406.94 285.07L406.55 282.28L407.07 278.42L406.88 274.83L407.68 271.1L407.49 264.66L405.92 260.94L400.13 251.8L398.5 250.05L396.64 249.04L395.63 249.1L394.8 249.4L393.66 250.45L391.8 253.03L390.74 253.33L388.79 254.46H386.9L383.3 252.8L381.74 252.56L381.17 252.76L379.44 254.64L377.74 258.55L377.1 261.79L376.21 262.44L370.39 262.18L368.48 261.83L367.37 260.71L367 258.33L366.66 257.63L366.07 256.91L363.11 254.99L361.43 255.94L359.95 257.24L358.83 259.42L358.71 260.27L359.84 265.76L359.78 266.4L359.07 267.25L358.46 267.6L356.33 267.51L353.55 266.68L352.09 266.89L350.47 267.95L347.91 270.62L346.07 271.08L345.5 271.49L344.04 271.22L341.45 270.11L337.15 267.04L336.1 266.81L335.27 267L334.06 268.03L332.85 271.03L332.02 272.16L331.27 272.61L330.08 272.66L323.88 269.61L322.85 269.34L321.19 269.27L319.88 269.62L318.53 270.83L318.6 272.97L319.27 273.55L320.84 272.94L321.87 273L322.09 273.32L321.89 274.68L320.46 276.18L319.32 277.96L318.94 279.44L318.81 284.65L319.58 286.47L320.83 287.39L321.15 288.2L320.67 289.08L312.3 291.56L311.25 292.11L308.64 292.17L306.24 291.81L305.72 292.1L304.81 292.72L303.53 295.35L302.08 301.47L301.92 300.81L300.69 299.22L300.1 297.72L298.69 296.95L297.05 297.01L295.99 296.55L294.43 296.96L293.66 298.48L292.25 299.64L289.32 300.19L286.94 301.45L284.54 302.08L283.96 301.8L282.51 302.02L282.15 301.83L281.19 300.1L279.96 299.03L278.54 298.9L277.59 299.19L276.43 300.57L274.87 304.95L274.42 305.38L273 305.98L271.46 305.55L270.05 306.01L266.04 308.97L264.91 309.12L264.38 308.82L263.94 308.05L263.02 307.78L261.21 308.15L257.06 307.65L255.79 307.92L255.07 307.77L253.28 306.37L253.86 304.89L254.56 304.54L254.69 303.77L257.03 301.09L257.44 300.27L258.76 299.11L260.42 298.27L261.81 296.93L263.08 294.16L264.08 292.69L265.41 291.45L266.22 289.62L267.03 288.78L267.31 288.2L267.17 287.43L267.52 287.19L267.47 286.76L267.86 286.53L267.72 286.05L268.03 285.9L268.05 285.28L268.56 284.93L269.01 283.81L270.23 282.31L270.63 281.2L276.36 275.55L276.61 274.82L277.98 272.96L277.92 272.45L278.96 270.91L279.02 270.22L281.56 264.85L282.38 263.76L282.51 263.66L282.58 263.05L283.54 259.71L283.55 258.16L284.87 251.47L285 251.24L285.17 251.2L284.87 250.63L285.25 249.84L285.08 249.17L284.63 248.52L284.49 248.75L284.15 248.71L283.95 248.76L283.42 248.31L283.39 248.02L282.87 247.63L282.21 245.23L281.82 244.85L281.31 243.41L279.84 242.97L279.6 241.97L278.2 240.38L276.61 239.62L275.01 239.78L274.18 239.47L274.62 236.78L275.68 235.45L275.61 234.92L277.36 231.34L277.32 230.48L277.05 230.17L276.7 230.34L276.55 229.9L277.28 227.95L276.8 227.09V225.32L279.65 228.2L280.51 230.44L280.35 230.71L282.42 230.78L283.31 230.48L285.24 231.29L286.33 230.79L287.72 228.8L288.11 229.08L287.84 230.11L288.01 230.37L289.28 230.66L290.59 231.37L291.62 231.22L292.3 230.75L294.8 230.48L295.69 231.28L297.77 231.5L298.96 230.78L300.85 230.74L302.83 229.87L306.3 230.4L307.25 229.94L308.15 228.43L312.27 226.6L313.34 225.86L314.83 224.1L315.63 224.03L316.29 224.18L316.69 225.15L318.2 225.54L318.92 226.28L319.91 229.86L321.25 229.7L322.57 228.45L323.69 228.2L329.86 228.35L331.12 227.04L331.94 226.83L333.76 227.3L337.7 226.63L339.04 226.26L342.22 224.76L343.43 225.76L343.29 227.18L343.8 227.32L346.37 225.82L349.55 223.02L349.83 221.84L349.48 221.27L349.64 220.98L352.34 219.52L355.47 216.58L357.62 215.53L359.85 215.5L361.3 215.11L362.32 214.48L365.41 211.24L367.27 210.34L370.77 210.15L373.29 209.59L375.28 206.84L376.26 206.19L378.51 205.52L381.15 205.56L387.34 207.41L388.41 206.86L390.29 206.64L390.76 207.37L391.64 207.01L392.42 207.19L393.23 204.83L393.77 204.32L393.17 202.67L393.32 201.94L394.41 200.56L396.23 200.3L397.4 199.75L399.32 200.24L401.66 199.45L407.39 195.89L413.48 193.5L414.41 192.2L415.87 191.27L417.44 191.57L418.18 191.29L419.59 191.28L420.01 190.29L420.11 188.42L423.71 186.82L425.12 184.96L427.02 185.04L427.17 184.47L429.01 183.06L429.41 182.41L429.42 181.57L429.1 180.83L429.18 179.51Z" fill="white" fill-opacity="0.3" stroke="black" stroke-width="1.4" mask="url(#path-13-inside-12)"/>
</g>
<g id="MA-15">
<mask id="path-14-inside-13" fill="white">
<path d="M201.95 344.48L198.89 345.78L198.66 345.87L197.58 346.27L190.77 349.83L185.05 351.24L184.15 351.23L172.28 353.73L162.74 354.95L161.15 355.42L159.13 355.51L158.6 356L158.38 356.5L157.54 356.89L157.29 357.6L156.64 358.3L155.66 361.7L154.94 362.27L154.08 364.14L153.29 364.82L151.69 365.44L149.64 366.74L148.46 369.66L147.25 374.67L145.3 380.12L144.52 381.5L144.4 382.36L140.45 389.11L140.14 391.41L139.93 391.98L140.1 392.48L139.63 393.56L139.64 393.77L138.01 397.77L137.03 401.49L135.82 404.55L134.18 407.49L132.54 409.27L130.24 411.12L121.04 416.62L118.84 418.51L114.92 420.04L111.04 420.46L110.18 422.23L108.68 424.14L105.53 426.69L102.66 427.29L99.64 431.35L98.92 432.96L99.52 434.39L99.45 436.83L99.05 438.87L96.43 444.74L94.64 447.34L93.76 448.06L92.71 452.4L91.9 454.35L91.93 455.8L91.47 457.45L90.59 459.21L88.07 462.71L87.85 464.57L86.5 467.86L86.6 469.65L85.84 471.67L86.18 473.47L85.84 474.98L86.17 476.02L86.01 476.8L86.49 477.11L86.86 478.14L86.66 481.23L86.31 482.56L86.51 484.03L84.45 489.84L84.25 491L84.45 492.62L82.07 494.74L80.54 495.52L80.3 496.92L79.98 497.39L83.06 497.87L88.23 499.96L89.42 500.75L91.67 504L92.86 504.67L94.07 504.94L98.92 504.15L106.94 502.11L115.11 501.67L125.13 503.98L128.04 505.16L129.79 505.57L136.49 503.75L139.42 502.39L144.78 500.49L151.43 499.89L162.66 502.09L170.89 504.92L174.24 504.93L183.17 503.03L189.47 503.02L191.48 503.52L193.83 503.01L193.82 438.51L177.07 438.58L176.54 434.77L175.85 432.65L175.48 430.06L174.79 427.53L173.95 426.25L173.73 424.41L172.37 420.64L172.03 419.09L172.13 417.41L172.9 414.47L174.78 410.65L178.08 406.69L181.85 403.01L184.16 400.09L186.75 393.43L188.75 389.73L190.47 382.42L192.02 378.43L197.04 371L199.95 368.41L201.91 367.22L209.85 367.25L209.25 363.99L210.53 363.65L213.77 363.7L210.55 359.88L208.77 357.01L207.5 353.22L204.84 350.46L202.51 344.29L202.33 344.42L201.95 344.48Z"/>
</mask>
<path d="M201.95 344.48L198.89 345.78L198.66 345.87L197.58 346.27L190.77 349.83L185.05 351.24L184.15 351.23L172.28 353.73L162.74 354.95L161.15 355.42L159.13 355.51L158.6 356L158.38 356.5L157.54 356.89L157.29 357.6L156.64 358.3L155.66 361.7L154.94 362.27L154.08 364.14L153.29 364.82L151.69 365.44L149.64 366.74L148.46 369.66L147.25 374.67L145.3 380.12L144.52 381.5L144.4 382.36L140.45 389.11L140.14 391.41L139.93 391.98L140.1 392.48L139.63 393.56L139.64 393.77L138.01 397.77L137.03 401.49L135.82 404.55L134.18 407.49L132.54 409.27L130.24 411.12L121.04 416.62L118.84 418.51L114.92 420.04L111.04 420.46L110.18 422.23L108.68 424.14L105.53 426.69L102.66 427.29L99.64 431.35L98.92 432.96L99.52 434.39L99.45 436.83L99.05 438.87L96.43 444.74L94.64 447.34L93.76 448.06L92.71 452.4L91.9 454.35L91.93 455.8L91.47 457.45L90.59 459.21L88.07 462.71L87.85 464.57L86.5 467.86L86.6 469.65L85.84 471.67L86.18 473.47L85.84 474.98L86.17 476.02L86.01 476.8L86.49 477.11L86.86 478.14L86.66 481.23L86.31 482.56L86.51 484.03L84.45 489.84L84.25 491L84.45 492.62L82.07 494.74L80.54 495.52L80.3 496.92L79.98 497.39L83.06 497.87L88.23 499.96L89.42 500.75L91.67 504L92.86 504.67L94.07 504.94L98.92 504.15L106.94 502.11L115.11 501.67L125.13 503.98L128.04 505.16L129.79 505.57L136.49 503.75L139.42 502.39L144.78 500.49L151.43 499.89L162.66 502.09L170.89 504.92L174.24 504.93L183.17 503.03L189.47 503.02L191.48 503.52L193.83 503.01L193.82 438.51L177.07 438.58L176.54 434.77L175.85 432.65L175.48 430.06L174.79 427.53L173.95 426.25L173.73 424.41L172.37 420.64L172.03 419.09L172.13 417.41L172.9 414.47L174.78 410.65L178.08 406.69L181.85 403.01L184.16 400.09L186.75 393.43L188.75 389.73L190.47 382.42L192.02 378.43L197.04 371L199.95 368.41L201.91 367.22L209.85 367.25L209.25 363.99L210.53 363.65L213.77 363.7L210.55 359.88L208.77 357.01L207.5 353.22L204.84 350.46L202.51 344.29L202.33 344.42L201.95 344.48Z" fill="white" fill-opacity="0.3" stroke="black" stroke-width="1.4" mask="url(#path-14-inside-13)"/>
</g>
<g id="MA-14">
<mask id="path-15-inside-14" fill="white">
<path d="M250.59 309.27L246.21 312.3L240.15 315.83L231.76 320.29L230.44 320.73L229.14 321.63L229.12 322.09L227.65 324L226.91 324.37L225.64 325.81L223.93 327.05L222.36 329.1L220.36 330.71L218.62 332.88L218.65 333.3L217.2 334.65L216.51 336.11L215.16 337.31L214.4 339.02L212.06 340.55L211.87 341L212.24 341.48L211.66 341.31L211.63 340.99L211.32 340.88L208.09 342.26L207.87 342.31L206.46 342.72L202.51 344.29L204.84 350.46L207.5 353.22L208.77 357.01L210.55 359.88L213.77 363.7L210.53 363.65L209.25 363.99L209.85 367.25L201.91 367.22L199.95 368.41L197.04 371L192.02 378.43L190.47 382.42L188.75 389.73L186.75 393.43L184.16 400.09L181.85 403.01L178.08 406.69L174.78 410.65L172.9 414.47L172.13 417.41L172.03 419.09L172.37 420.64L173.73 424.41L173.95 426.25L174.79 427.53L175.48 430.06L175.85 432.65L176.54 434.77L177.07 438.58L193.82 438.51L320.33 438.44L320.58 322.86L328.48 319.27L333.75 314.14L339.2 309.82L340.22 309.79L342.97 307.66L347.33 305.08L347.61 304.38L348.52 303.38L351.88 301.41L354.1 299.45L357.99 297.63L358.76 297.43L359.24 297.59L360.23 296.07L360.17 295.05L361.2 294.23L365.18 294.73L368.33 294.01L369.13 294.08L369.71 293.57L371.24 293.12L374.87 289.49L378.29 287.87L379.89 287.88L383.13 289.14L384.39 288.69L385.32 289.1L387.2 288.97L388.13 289.51L389.45 289.61L390.3 290.25L392.45 290.51L393.22 290.29L394.59 288.61L395.58 288.2L397.99 288L398.47 287.57L401.93 287.95L402.42 287.33L404.44 286.18L405.23 286L406.83 286.26L406.97 285.05L406.58 282.26L407.1 278.39L406.91 274.81L407.71 271.08L407.51 264.63L405.94 260.92L400.15 251.78L398.52 250.03L396.65 249.02L395.64 249.08L394.81 249.39L393.66 250.43L391.8 253.01L390.74 253.32L388.79 254.45H386.9L383.3 252.79L381.73 252.55L381.17 252.76L379.43 254.64L377.73 258.55L377.09 261.79L376.19 262.44L370.37 262.18L368.47 261.83L367.36 260.71L367 258.33L366.65 257.63L366.07 256.91L363.1 254.99L361.42 255.95L359.93 257.24L358.81 259.43L358.69 260.27L359.82 265.76L359.75 266.41L359.04 267.26L358.43 267.6L356.3 267.52L353.53 266.69L352.07 266.9L350.44 267.96L347.89 270.63L346.05 271.09L345.48 271.5L344.02 271.22L341.43 270.11L337.13 267.04L336.07 266.81L335.24 266.99L334.03 268.03L332.82 271.03L331.99 272.16L331.25 272.61L330.05 272.65L323.85 269.6L322.82 269.32L321.16 269.25L319.84 269.6L318.5 270.81L318.57 272.95L319.24 273.53L320.81 272.92L321.84 272.98L322.06 273.3L321.87 274.66L320.44 276.16L319.29 277.94L318.91 279.42L318.79 284.63L319.56 286.45L320.81 287.37L321.13 288.18L320.65 289.07L312.28 291.55L311.22 292.1L308.62 292.16L306.22 291.8L305.69 292.09L304.79 292.72L303.5 295.35L302.05 301.47L301.89 300.81L300.66 299.22L300.08 297.73L298.67 296.96L297.02 297.01L295.96 296.56L294.4 296.97L293.63 298.49L292.22 299.65L289.29 300.19L286.91 301.45L284.51 302.09L283.93 301.81L282.47 302.03L282.11 301.84L281.15 300.11L279.92 299.05L278.5 298.91L277.55 299.2L276.39 300.58L274.83 304.96L274.38 305.39L272.96 305.98L271.42 305.56L270.01 306.01L266 308.97L264.87 309.12L264.34 308.82L263.91 308.05L262.98 307.78L261.17 308.15L257.03 307.64L255.76 307.91L255.04 307.76L253.25 306.36L252.95 306.41L250.59 309.27Z"/>
</mask>
<path d="M250.59 309.27L246.21 312.3L240.15 315.83L231.76 320.29L230.44 320.73L229.14 321.63L229.12 322.09L227.65 324L226.91 324.37L225.64 325.81L223.93 327.05L222.36 329.1L220.36 330.71L218.62 332.88L218.65 333.3L217.2 334.65L216.51 336.11L215.16 337.31L214.4 339.02L212.06 340.55L211.87 341L212.24 341.48L211.66 341.31L211.63 340.99L211.32 340.88L208.09 342.26L207.87 342.31L206.46 342.72L202.51 344.29L204.84 350.46L207.5 353.22L208.77 357.01L210.55 359.88L213.77 363.7L210.53 363.65L209.25 363.99L209.85 367.25L201.91 367.22L199.95 368.41L197.04 371L192.02 378.43L190.47 382.42L188.75 389.73L186.75 393.43L184.16 400.09L181.85 403.01L178.08 406.69L174.78 410.65L172.9 414.47L172.13 417.41L172.03 419.09L172.37 420.64L173.73 424.41L173.95 426.25L174.79 427.53L175.48 430.06L175.85 432.65L176.54 434.77L177.07 438.58L193.82 438.51L320.33 438.44L320.58 322.86L328.48 319.27L333.75 314.14L339.2 309.82L340.22 309.79L342.97 307.66L347.33 305.08L347.61 304.38L348.52 303.38L351.88 301.41L354.1 299.45L357.99 297.63L358.76 297.43L359.24 297.59L360.23 296.07L360.17 295.05L361.2 294.23L365.18 294.73L368.33 294.01L369.13 294.08L369.71 293.57L371.24 293.12L374.87 289.49L378.29 287.87L379.89 287.88L383.13 289.14L384.39 288.69L385.32 289.1L387.2 288.97L388.13 289.51L389.45 289.61L390.3 290.25L392.45 290.51L393.22 290.29L394.59 288.61L395.58 288.2L397.99 288L398.47 287.57L401.93 287.95L402.42 287.33L404.44 286.18L405.23 286L406.83 286.26L406.97 285.05L406.58 282.26L407.1 278.39L406.91 274.81L407.71 271.08L407.51 264.63L405.94 260.92L400.15 251.78L398.52 250.03L396.65 249.02L395.64 249.08L394.81 249.39L393.66 250.43L391.8 253.01L390.74 253.32L388.79 254.45H386.9L383.3 252.79L381.73 252.55L381.17 252.76L379.43 254.64L377.73 258.55L377.09 261.79L376.19 262.44L370.37 262.18L368.47 261.83L367.36 260.71L367 258.33L366.65 257.63L366.07 256.91L363.1 254.99L361.42 255.95L359.93 257.24L358.81 259.43L358.69 260.27L359.82 265.76L359.75 266.41L359.04 267.26L358.43 267.6L356.3 267.52L353.53 266.69L352.07 266.9L350.44 267.96L347.89 270.63L346.05 271.09L345.48 271.5L344.02 271.22L341.43 270.11L337.13 267.04L336.07 266.81L335.24 266.99L334.03 268.03L332.82 271.03L331.99 272.16L331.25 272.61L330.05 272.65L323.85 269.6L322.82 269.32L321.16 269.25L319.84 269.6L318.5 270.81L318.57 272.95L319.24 273.53L320.81 272.92L321.84 272.98L322.06 273.3L321.87 274.66L320.44 276.16L319.29 277.94L318.91 279.42L318.79 284.63L319.56 286.45L320.81 287.37L321.13 288.18L320.65 289.07L312.28 291.55L311.22 292.1L308.62 292.16L306.22 291.8L305.69 292.09L304.79 292.72L303.5 295.35L302.05 301.47L301.89 300.81L300.66 299.22L300.08 297.73L298.67 296.96L297.02 297.01L295.96 296.56L294.4 296.97L293.63 298.49L292.22 299.65L289.29 300.19L286.91 301.45L284.51 302.09L283.93 301.81L282.47 302.03L282.11 301.84L281.15 300.11L279.92 299.05L278.5 298.91L277.55 299.2L276.39 300.58L274.83 304.96L274.38 305.39L272.96 305.98L271.42 305.56L270.01 306.01L266 308.97L264.87 309.12L264.34 308.82L263.91 308.05L262.98 307.78L261.17 308.15L257.03 307.64L255.76 307.91L255.04 307.76L253.25 306.36L252.95 306.41L250.59 309.27Z" fill="white" fill-opacity="0.3" stroke="black" stroke-width="1.4" mask="url(#path-15-inside-14)"/>
</g>
<g id="MA-16">
<mask id="path-16-inside-15" fill="white">
<path d="M79.98 497.39L83.07 497.87L88.23 499.96L89.43 500.75L91.68 504L92.87 504.67L94.08 504.94L98.93 504.15L106.95 502.11L115.12 501.66L125.14 503.97L128.04 505.15L129.79 505.57L136.49 503.74L139.42 502.39L144.78 500.48L151.43 499.88L162.67 502.09L170.89 504.91L174.24 504.92L183.17 503.01H189.47L191.49 503.5L193.83 502.99L193.98 544.22L165.11 546.98L161.67 549.39L157.62 554.15L154.26 559.49L152.75 563.13L150.74 571.67L150.46 573.92L155.93 631L81.5 630.48L7.1 631.02L6.32 631.17L3.91 640.17L2.51 642.77L2.17 645.2L1.5 647.51L1.49 650.87L2.05 653.52L2.27 653.62L2.04 653.73L0.88 651.45L0.37 651.46L0 650.69L1.03 649.06L0.35 647.56L1.55 644.39L1.52 641.21L2.31 637.86L2.06 636.95L2.94 632.62L2.77 631.14L4.68 621.73L4.55 619.73L4.98 617.62L4.67 615.27L5.86 613.6L5.85 613.22L5.3 613.07L5.54 610.86L7.76 607.94L8.02 607.07L7.88 606.2L8.84 604.3L11.31 597.21L12.57 596.63L12.75 596.21L12.51 595.59L12.77 594.96L14.73 593.43L15.37 592.37L16.08 591.78L17.17 591.85L17.8 592.87L18.88 592.77L21.18 591.97L23.17 590.62L23.15 589.6L23.83 589.07L24.51 587.84L24.8 585.04L25.29 584.15L25.26 583.38L25.74 582.49L27.31 581.47L28.32 580.23L28.5 578.32L28.97 577.34L28.93 574.25L29.2 572.92L31.05 569.73L30.97 569.14L30.43 568.99L31.02 566.85L31.6 567.21L33.85 566.31L35.42 564.79L36.41 563.16L36.61 561.56L36.37 560.53L35.83 559.7L35.09 559.21L34.39 559.34L33.99 559.77L34.41 558.54L34.79 557.71L35.76 557.07L37.27 555.16L37.65 554.36L37.59 553.38L39.7 550.17L39.45 549.43L41.63 547.45L42.71 545.95L43.82 543.48L42.92 542.02L44.23 541.28L44.95 540.09L45.54 539.74L46.71 537.15L47.31 536.94L47.75 536.4L48.29 535.23L49.5 533.75L50.29 532.03L51.6 530.95L52.05 529.69L52.82 529.17L52.69 528.8L51.61 529.61L52 527.72L52.98 526.19L52.59 525.1L53.42 522.75L52.82 523.06L52.12 523.77L51.5 523.92L51.61 524.9L51.07 525.92L50.95 525.61L50.93 525.38L50.79 524.99L50.21 525.39L49.4 527.1L48.47 527.7L48.25 527.73L48.17 527.37L47.63 527.76L45.98 530.1L44.87 534.16L43.62 535.24L43.53 535.34L42.71 536.58L42.63 537.13L42 536.95L41.75 536.22L42.56 534.96L43.52 534.08L43.63 533.03L44.88 531.77L44.81 531.23L45.61 529.25L48.02 526.36L49.31 525.37L49.4 524.96L51.53 523.5L54.84 521.8L57.45 519.94L58.06 519.06L57.78 518.63L58.19 517.86L59.66 516.84L60.2 515.77L60.85 515.37L64.11 511.79L67.35 509.26L70.68 504.59L73.62 501.51L75.25 500.58L79.13 499.03L79.72 498.5L79.98 497.39Z"/>
</mask>
<path d="M79.98 497.39L83.07 497.87L88.23 499.96L89.43 500.75L91.68 504L92.87 504.67L94.08 504.94L98.93 504.15L106.95 502.11L115.12 501.66L125.14 503.97L128.04 505.15L129.79 505.57L136.49 503.74L139.42 502.39L144.78 500.48L151.43 499.88L162.67 502.09L170.89 504.91L174.24 504.92L183.17 503.01H189.47L191.49 503.5L193.83 502.99L193.98 544.22L165.11 546.98L161.67 549.39L157.62 554.15L154.26 559.49L152.75 563.13L150.74 571.67L150.46 573.92L155.93 631L81.5 630.48L7.1 631.02L6.32 631.17L3.91 640.17L2.51 642.77L2.17 645.2L1.5 647.51L1.49 650.87L2.05 653.52L2.27 653.62L2.04 653.73L0.88 651.45L0.37 651.46L0 650.69L1.03 649.06L0.35 647.56L1.55 644.39L1.52 641.21L2.31 637.86L2.06 636.95L2.94 632.62L2.77 631.14L4.68 621.73L4.55 619.73L4.98 617.62L4.67 615.27L5.86 613.6L5.85 613.22L5.3 613.07L5.54 610.86L7.76 607.94L8.02 607.07L7.88 606.2L8.84 604.3L11.31 597.21L12.57 596.63L12.75 596.21L12.51 595.59L12.77 594.96L14.73 593.43L15.37 592.37L16.08 591.78L17.17 591.85L17.8 592.87L18.88 592.77L21.18 591.97L23.17 590.62L23.15 589.6L23.83 589.07L24.51 587.84L24.8 585.04L25.29 584.15L25.26 583.38L25.74 582.49L27.31 581.47L28.32 580.23L28.5 578.32L28.97 577.34L28.93 574.25L29.2 572.92L31.05 569.73L30.97 569.14L30.43 568.99L31.02 566.85L31.6 567.21L33.85 566.31L35.42 564.79L36.41 563.16L36.61 561.56L36.37 560.53L35.83 559.7L35.09 559.21L34.39 559.34L33.99 559.77L34.41 558.54L34.79 557.71L35.76 557.07L37.27 555.16L37.65 554.36L37.59 553.38L39.7 550.17L39.45 549.43L41.63 547.45L42.71 545.95L43.82 543.48L42.92 542.02L44.23 541.28L44.95 540.09L45.54 539.74L46.71 537.15L47.31 536.94L47.75 536.4L48.29 535.23L49.5 533.75L50.29 532.03L51.6 530.95L52.05 529.69L52.82 529.17L52.69 528.8L51.61 529.61L52 527.72L52.98 526.19L52.59 525.1L53.42 522.75L52.82 523.06L52.12 523.77L51.5 523.92L51.61 524.9L51.07 525.92L50.95 525.61L50.93 525.38L50.79 524.99L50.21 525.39L49.4 527.1L48.47 527.7L48.25 527.73L48.17 527.37L47.63 527.76L45.98 530.1L44.87 534.16L43.62 535.24L43.53 535.34L42.71 536.58L42.63 537.13L42 536.95L41.75 536.22L42.56 534.96L43.52 534.08L43.63 533.03L44.88 531.77L44.81 531.23L45.61 529.25L48.02 526.36L49.31 525.37L49.4 524.96L51.53 523.5L54.84 521.8L57.45 519.94L58.06 519.06L57.78 518.63L58.19 517.86L59.66 516.84L60.2 515.77L60.85 515.37L64.11 511.79L67.35 509.26L70.68 504.59L73.62 501.51L75.25 500.58L79.13 499.03L79.72 498.5L79.98 497.39Z" fill="white" fill-opacity="0.3" stroke="black" stroke-width="1.4" mask="url(#path-16-inside-15)"/>
</g>
</g>
</g>
</g>
</svg>
